# MagicaVoxel @ Ephtracy

# group
g pickuptruck_blue

# material
mtllib pickuptruck_blue.mtl
usemtl palette

# normals
vn -1 0 0
vn 1 0 0
vn 0 0 1
vn 0 0 -1
vn 0 -1 0
vn 0 1 0

# texcoords
vt 0.638672 0.5
vt 0.958984 0.5
vt 0.974609 0.5
vt 0.982422 0.5
vt 0.986328 0.5
vt 0.990234 0.5

# verts
v -5.5 0 9.5
v -5.5 0 5.5
v -5.5 0 -6.5
v -5.5 0 -10.5
v -5.5 1 10.5
v -5.5 1 9.5
v -5.5 1 5.5
v -5.5 1 4.5
v -5.5 1 -5.5
v -5.5 1 -6.5
v -5.5 1 -10.5
v -5.5 1 -11.5
v -5.5 2 8.5
v -5.5 2 6.5
v -5.5 2 -7.5
v -5.5 2 -9.5
v -5.5 3 13.5
v -5.5 3 10.5
v -5.5 3 4.5
v -5.5 3 -5.5
v -5.5 3 -11.5
v -5.5 3 -13.5
v -5.5 4 8.5
v -5.5 4 6.5
v -5.5 4 -7.5
v -5.5 4 -9.5
v -5.5 5 10.5
v -5.5 5 9.5
v -5.5 5 5.5
v -5.5 5 4.5
v -5.5 5 -5.5
v -5.5 5 -6.5
v -5.5 5 -10.5
v -5.5 5 -11.5
v -5.5 6 9.5
v -5.5 6 5.5
v -5.5 6 -6.5
v -5.5 6 -10.5
v -5.5 10 13.5
v -5.5 10 10.5
v -5.5 10 1.5
v -5.5 10 -13.5
v -5.5 12 9.5
v -5.5 12 2.5
v -5.5 18 9.5
v -5.5 18 2.5
v -5.5 19 10.5
v -5.5 19 1.5
v 3.5 0 9.5
v 3.5 0 5.5
v 3.5 0 -6.5
v 3.5 0 -10.5
v 3.5 1 10.5
v 3.5 1 9.5
v 3.5 1 5.5
v 3.5 1 4.5
v 3.5 1 -5.5
v 3.5 1 -6.5
v 3.5 1 -10.5
v 3.5 1 -11.5
v 3.5 3 10.5
v 3.5 3 4.5
v 3.5 3 -5.5
v 3.5 3 -11.5
v 3.5 6 -6.5
v 3.5 6 -10.5
v 3.5 7 -6.5
v 3.5 7 -10.5
v 4.5 6 1.5
v 4.5 6 -6.5
v 4.5 6 -10.5
v 4.5 6 -12.5
v 4.5 7 -6.5
v 4.5 7 -10.5
v 4.5 10 1.5
v 4.5 10 -12.5
v 4.5 11 9.5
v 4.5 11 2.5
v 4.5 12 9.5
v 4.5 12 2.5
v 4.5 18 9.5
v 4.5 18 2.5
v -4.5 6 1.5
v -4.5 6 -6.5
v -4.5 6 -10.5
v -4.5 6 -12.5
v -4.5 7 -6.5
v -4.5 7 -10.5
v -4.5 10 1.5
v -4.5 10 -12.5
v -4.5 11 9.5
v -4.5 11 2.5
v -4.5 12 9.5
v -4.5 12 2.5
v -4.5 18 9.5
v -4.5 18 2.5
v -3.5 0 9.5
v -3.5 0 5.5
v -3.5 0 -6.5
v -3.5 0 -10.5
v -3.5 1 10.5
v -3.5 1 9.5
v -3.5 1 5.5
v -3.5 1 4.5
v -3.5 1 -5.5
v -3.5 1 -6.5
v -3.5 1 -10.5
v -3.5 1 -11.5
v -3.5 3 10.5
v -3.5 3 4.5
v -3.5 3 -5.5
v -3.5 3 -11.5
v -3.5 6 -6.5
v -3.5 6 -10.5
v -3.5 7 -6.5
v -3.5 7 -10.5
v 5.5 0 9.5
v 5.5 0 5.5
v 5.5 0 -6.5
v 5.5 0 -10.5
v 5.5 1 10.5
v 5.5 1 9.5
v 5.5 1 5.5
v 5.5 1 4.5
v 5.5 1 -5.5
v 5.5 1 -6.5
v 5.5 1 -10.5
v 5.5 1 -11.5
v 5.5 2 8.5
v 5.5 2 6.5
v 5.5 2 -7.5
v 5.5 2 -9.5
v 5.5 3 13.5
v 5.5 3 10.5
v 5.5 3 4.5
v 5.5 3 -5.5
v 5.5 3 -11.5
v 5.5 3 -13.5
v 5.5 4 8.5
v 5.5 4 6.5
v 5.5 4 -7.5
v 5.5 4 -9.5
v 5.5 5 10.5
v 5.5 5 9.5
v 5.5 5 5.5
v 5.5 5 4.5
v 5.5 5 -5.5
v 5.5 5 -6.5
v 5.5 5 -10.5
v 5.5 5 -11.5
v 5.5 6 9.5
v 5.5 6 5.5
v 5.5 6 -6.5
v 5.5 6 -10.5
v 5.5 10 13.5
v 5.5 10 10.5
v 5.5 10 1.5
v 5.5 10 -13.5
v 5.5 12 9.5
v 5.5 12 2.5
v 5.5 18 9.5
v 5.5 18 2.5
v 5.5 19 10.5
v 5.5 19 1.5
v -5.5 3 13.5
v -5.5 10 13.5
v -4.5 6 13.5
v -4.5 9 13.5
v -1.5 6 13.5
v -1.5 9 13.5
v 1.5 6 13.5
v 1.5 9 13.5
v 4.5 6 13.5
v 4.5 9 13.5
v 5.5 3 13.5
v 5.5 10 13.5
v -5.5 1 10.5
v -5.5 3 10.5
v -5.5 10 10.5
v -5.5 19 10.5
v -4.5 11 10.5
v -4.5 18 10.5
v -3.5 1 10.5
v -3.5 3 10.5
v 3.5 1 10.5
v 3.5 3 10.5
v 4.5 11 10.5
v 4.5 18 10.5
v 5.5 1 10.5
v 5.5 3 10.5
v 5.5 10 10.5
v 5.5 19 10.5
v -5.5 0 9.5
v -5.5 1 9.5
v -3.5 0 9.5
v -3.5 1 9.5
v 3.5 0 9.5
v 3.5 1 9.5
v 5.5 0 9.5
v 5.5 1 9.5
v -4.5 11 2.5
v -4.5 12 2.5
v -4.5 18 2.5
v 4.5 11 2.5
v 4.5 12 2.5
v 4.5 18 2.5
v -5.5 1 -5.5
v -5.5 3 -5.5
v -3.5 1 -5.5
v -3.5 3 -5.5
v 3.5 1 -5.5
v 3.5 3 -5.5
v 5.5 1 -5.5
v 5.5 3 -5.5
v -5.5 0 -6.5
v -5.5 1 -6.5
v -4.5 6 -6.5
v -4.5 7 -6.5
v -3.5 0 -6.5
v -3.5 1 -6.5
v -3.5 6 -6.5
v -3.5 7 -6.5
v 3.5 0 -6.5
v 3.5 1 -6.5
v 3.5 6 -6.5
v 3.5 7 -6.5
v 4.5 6 -6.5
v 4.5 7 -6.5
v 5.5 0 -6.5
v 5.5 1 -6.5
v -4.5 6 -12.5
v -4.5 10 -12.5
v 4.5 6 -12.5
v 4.5 10 -12.5
v -4.5 11 9.5
v -4.5 12 9.5
v -4.5 18 9.5
v 4.5 11 9.5
v 4.5 12 9.5
v 4.5 18 9.5
v -5.5 0 5.5
v -5.5 1 5.5
v -3.5 0 5.5
v -3.5 1 5.5
v 3.5 0 5.5
v 3.5 1 5.5
v 5.5 0 5.5
v 5.5 1 5.5
v -5.5 1 4.5
v -5.5 3 4.5
v -3.5 1 4.5
v -3.5 3 4.5
v 3.5 1 4.5
v 3.5 3 4.5
v 5.5 1 4.5
v 5.5 3 4.5
v -5.5 10 1.5
v -5.5 19 1.5
v -4.5 6 1.5
v -4.5 10 1.5
v -4.5 12 1.5
v -4.5 18 1.5
v 4.5 6 1.5
v 4.5 10 1.5
v 4.5 12 1.5
v 4.5 18 1.5
v 5.5 10 1.5
v 5.5 19 1.5
v -5.5 0 -10.5
v -5.5 1 -10.5
v -4.5 6 -10.5
v -4.5 7 -10.5
v -3.5 0 -10.5
v -3.5 1 -10.5
v -3.5 6 -10.5
v -3.5 7 -10.5
v 3.5 0 -10.5
v 3.5 1 -10.5
v 3.5 6 -10.5
v 3.5 7 -10.5
v 4.5 6 -10.5
v 4.5 7 -10.5
v 5.5 0 -10.5
v 5.5 1 -10.5
v -5.5 1 -11.5
v -5.5 3 -11.5
v -3.5 1 -11.5
v -3.5 3 -11.5
v 3.5 1 -11.5
v 3.5 3 -11.5
v 5.5 1 -11.5
v 5.5 3 -11.5
v -5.5 3 -13.5
v -5.5 10 -13.5
v 5.5 3 -13.5
v 5.5 10 -13.5
v -5.5 0 9.5
v -3.5 0 9.5
v 3.5 0 9.5
v 5.5 0 9.5
v -5.5 0 5.5
v -3.5 0 5.5
v 3.5 0 5.5
v 5.5 0 5.5
v -5.5 0 -6.5
v -3.5 0 -6.5
v 3.5 0 -6.5
v 5.5 0 -6.5
v -5.5 0 -10.5
v -3.5 0 -10.5
v 3.5 0 -10.5
v 5.5 0 -10.5
v -5.5 1 10.5
v -3.5 1 10.5
v 3.5 1 10.5
v 5.5 1 10.5
v -5.5 1 9.5
v -3.5 1 9.5
v 3.5 1 9.5
v 5.5 1 9.5
v -5.5 1 5.5
v -3.5 1 5.5
v 3.5 1 5.5
v 5.5 1 5.5
v -5.5 1 4.5
v -3.5 1 4.5
v 3.5 1 4.5
v 5.5 1 4.5
v -5.5 1 -5.5
v -3.5 1 -5.5
v 3.5 1 -5.5
v 5.5 1 -5.5
v -5.5 1 -6.5
v -3.5 1 -6.5
v 3.5 1 -6.5
v 5.5 1 -6.5
v -5.5 1 -10.5
v -3.5 1 -10.5
v 3.5 1 -10.5
v 5.5 1 -10.5
v -5.5 1 -11.5
v -3.5 1 -11.5
v 3.5 1 -11.5
v 5.5 1 -11.5
v -5.5 3 13.5
v 5.5 3 13.5
v -5.5 3 10.5
v -3.5 3 10.5
v 3.5 3 10.5
v 5.5 3 10.5
v -5.5 3 4.5
v -3.5 3 4.5
v 3.5 3 4.5
v 5.5 3 4.5
v -5.5 3 -5.5
v -3.5 3 -5.5
v 3.5 3 -5.5
v 5.5 3 -5.5
v -5.5 3 -11.5
v -3.5 3 -11.5
v 3.5 3 -11.5
v 5.5 3 -11.5
v -5.5 3 -13.5
v 5.5 3 -13.5
v -4.5 18 9.5
v 4.5 18 9.5
v -4.5 18 2.5
v 4.5 18 2.5
v -4.5 6 1.5
v 4.5 6 1.5
v -4.5 6 -6.5
v -3.5 6 -6.5
v 3.5 6 -6.5
v 4.5 6 -6.5
v -4.5 6 -10.5
v -3.5 6 -10.5
v 3.5 6 -10.5
v 4.5 6 -10.5
v -4.5 6 -12.5
v 4.5 6 -12.5
v -4.5 7 -6.5
v -3.5 7 -6.5
v 3.5 7 -6.5
v 4.5 7 -6.5
v -4.5 7 -10.5
v -3.5 7 -10.5
v 3.5 7 -10.5
v 4.5 7 -10.5
v -5.5 10 13.5
v 5.5 10 13.5
v -5.5 10 10.5
v 5.5 10 10.5
v -5.5 10 1.5
v -4.5 10 1.5
v 4.5 10 1.5
v 5.5 10 1.5
v -4.5 10 -12.5
v 4.5 10 -12.5
v -5.5 10 -13.5
v 5.5 10 -13.5
v -4.5 11 9.5
v 4.5 11 9.5
v -4.5 11 2.5
v 4.5 11 2.5
v -5.5 19 10.5
v 5.5 19 10.5
v -5.5 19 1.5
v 5.5 19 1.5

# faces
f 6/6/1 2/6/1 1/6/1
f 7/6/1 2/6/1 6/6/1
f 10/6/1 4/6/1 3/6/1
f 11/6/1 4/6/1 10/6/1
f 13/6/1 8/6/1 7/6/1
f 13/6/1 6/6/1 5/6/1
f 13/6/1 7/6/1 6/6/1
f 14/6/1 8/6/1 13/6/1
f 15/6/1 12/6/1 11/6/1
f 15/6/1 11/6/1 10/6/1
f 15/6/1 10/6/1 9/6/1
f 16/6/1 12/6/1 15/6/1
f 18/6/1 13/6/1 5/6/1
f 19/6/1 8/6/1 14/6/1
f 20/6/1 15/6/1 9/6/1
f 21/6/1 12/6/1 16/6/1
f 23/3/1 14/3/1 13/3/1
f 23/6/1 13/6/1 18/6/1
f 24/6/1 19/6/1 14/6/1
f 24/3/1 14/3/1 23/3/1
f 25/3/1 16/3/1 15/3/1
f 25/6/1 15/6/1 20/6/1
f 26/6/1 21/6/1 16/6/1
f 26/3/1 16/3/1 25/3/1
f 27/1/1 18/1/1 17/1/1
f 27/6/1 23/6/1 18/6/1
f 27/6/1 24/6/1 23/6/1
f 28/6/1 24/6/1 27/6/1
f 29/6/1 19/6/1 24/6/1
f 29/6/1 24/6/1 28/6/1
f 30/1/1 20/1/1 19/1/1
f 30/6/1 19/6/1 29/6/1
f 31/6/1 26/6/1 25/6/1
f 31/1/1 20/1/1 30/1/1
f 31/6/1 25/6/1 20/6/1
f 32/6/1 26/6/1 31/6/1
f 33/6/1 21/6/1 26/6/1
f 33/6/1 26/6/1 32/6/1
f 34/1/1 22/1/1 21/1/1
f 34/6/1 21/6/1 33/6/1
f 35/6/1 29/6/1 28/6/1
f 35/1/1 28/1/1 27/1/1
f 36/1/1 32/1/1 31/1/1
f 36/6/1 29/6/1 35/6/1
f 36/1/1 30/1/1 29/1/1
f 36/1/1 31/1/1 30/1/1
f 37/6/1 33/6/1 32/6/1
f 37/1/1 32/1/1 36/1/1
f 38/1/1 34/1/1 33/1/1
f 38/6/1 33/6/1 37/6/1
f 39/1/1 35/1/1 27/1/1
f 39/1/1 36/1/1 35/1/1
f 39/1/1 38/1/1 37/1/1
f 39/1/1 27/1/1 17/1/1
f 39/1/1 37/1/1 36/1/1
f 40/1/1 38/1/1 39/1/1
f 41/1/1 38/1/1 40/1/1
f 42/1/1 34/1/1 38/1/1
f 42/1/1 38/1/1 41/1/1
f 42/1/1 22/1/1 34/1/1
f 43/1/1 41/1/1 40/1/1
f 44/1/1 41/1/1 43/1/1
f 45/1/1 43/1/1 40/1/1
f 45/5/1 44/5/1 43/5/1
f 46/1/1 41/1/1 44/1/1
f 46/5/1 44/5/1 45/5/1
f 47/1/1 45/1/1 40/1/1
f 47/1/1 46/1/1 45/1/1
f 48/1/1 41/1/1 46/1/1
f 48/1/1 46/1/1 47/1/1
f 54/6/1 50/6/1 49/6/1
f 55/6/1 50/6/1 54/6/1
f 58/6/1 52/6/1 51/6/1
f 59/6/1 52/6/1 58/6/1
f 61/6/1 56/6/1 55/6/1
f 61/6/1 54/6/1 53/6/1
f 61/6/1 55/6/1 54/6/1
f 62/6/1 56/6/1 61/6/1
f 63/6/1 60/6/1 59/6/1
f 63/6/1 59/6/1 58/6/1
f 63/6/1 58/6/1 57/6/1
f 64/6/1 60/6/1 63/6/1
f 67/1/1 66/1/1 65/1/1
f 68/1/1 66/1/1 67/1/1
f 73/1/1 70/1/1 69/1/1
f 74/1/1 72/1/1 71/1/1
f 75/1/1 73/1/1 69/1/1
f 75/1/1 74/1/1 73/1/1
f 76/1/1 72/1/1 74/1/1
f 76/1/1 74/1/1 75/1/1
f 79/1/1 78/1/1 77/1/1
f 80/1/1 78/1/1 79/1/1
f 81/5/1 80/5/1 79/5/1
f 82/5/1 80/5/1 81/5/1
f 83/1/2 84/1/2 87/1/2
f 85/1/2 86/1/2 88/1/2
f 83/1/2 87/1/2 89/1/2
f 87/1/2 88/1/2 89/1/2
f 88/1/2 86/1/2 90/1/2
f 89/1/2 88/1/2 90/1/2
f 91/1/2 92/1/2 93/1/2
f 93/1/2 92/1/2 94/1/2
f 93/5/2 94/5/2 95/5/2
f 95/5/2 94/5/2 96/5/2
f 97/6/2 98/6/2 102/6/2
f 102/6/2 98/6/2 103/6/2
f 99/6/2 100/6/2 106/6/2
f 106/6/2 100/6/2 107/6/2
f 103/6/2 104/6/2 109/6/2
f 101/6/2 102/6/2 109/6/2
f 102/6/2 103/6/2 109/6/2
f 109/6/2 104/6/2 110/6/2
f 107/6/2 108/6/2 111/6/2
f 106/6/2 107/6/2 111/6/2
f 105/6/2 106/6/2 111/6/2
f 111/6/2 108/6/2 112/6/2
f 113/1/2 114/1/2 115/1/2
f 115/1/2 114/1/2 116/1/2
f 117/6/2 118/6/2 122/6/2
f 122/6/2 118/6/2 123/6/2
f 119/6/2 120/6/2 126/6/2
f 126/6/2 120/6/2 127/6/2
f 123/6/2 124/6/2 129/6/2
f 121/6/2 122/6/2 129/6/2
f 122/6/2 123/6/2 129/6/2
f 129/6/2 124/6/2 130/6/2
f 127/6/2 128/6/2 131/6/2
f 126/6/2 127/6/2 131/6/2
f 125/6/2 126/6/2 131/6/2
f 131/6/2 128/6/2 132/6/2
f 121/6/2 129/6/2 134/6/2
f 130/6/2 124/6/2 135/6/2
f 125/6/2 131/6/2 136/6/2
f 132/6/2 128/6/2 137/6/2
f 129/3/2 130/3/2 139/3/2
f 134/6/2 129/6/2 139/6/2
f 130/6/2 135/6/2 140/6/2
f 139/3/2 130/3/2 140/3/2
f 131/3/2 132/3/2 141/3/2
f 136/6/2 131/6/2 141/6/2
f 132/6/2 137/6/2 142/6/2
f 141/3/2 132/3/2 142/3/2
f 133/1/2 134/1/2 143/1/2
f 134/6/2 139/6/2 143/6/2
f 139/6/2 140/6/2 143/6/2
f 143/6/2 140/6/2 144/6/2
f 140/6/2 135/6/2 145/6/2
f 144/6/2 140/6/2 145/6/2
f 135/1/2 136/1/2 146/1/2
f 145/6/2 135/6/2 146/6/2
f 141/6/2 142/6/2 147/6/2
f 146/1/2 136/1/2 147/1/2
f 136/6/2 141/6/2 147/6/2
f 147/6/2 142/6/2 148/6/2
f 142/6/2 137/6/2 149/6/2
f 148/6/2 142/6/2 149/6/2
f 137/1/2 138/1/2 150/1/2
f 149/6/2 137/6/2 150/6/2
f 144/6/2 145/6/2 151/6/2
f 143/1/2 144/1/2 151/1/2
f 147/1/2 148/1/2 152/1/2
f 151/6/2 145/6/2 152/6/2
f 145/1/2 146/1/2 152/1/2
f 146/1/2 147/1/2 152/1/2
f 148/6/2 149/6/2 153/6/2
f 152/1/2 148/1/2 153/1/2
f 149/1/2 150/1/2 154/1/2
f 153/6/2 149/6/2 154/6/2
f 143/1/2 151/1/2 155/1/2
f 151/1/2 152/1/2 155/1/2
f 153/1/2 154/1/2 155/1/2
f 133/1/2 143/1/2 155/1/2
f 152/1/2 153/1/2 155/1/2
f 155/1/2 154/1/2 156/1/2
f 156/1/2 154/1/2 157/1/2
f 154/1/2 150/1/2 158/1/2
f 157/1/2 154/1/2 158/1/2
f 150/1/2 138/1/2 158/1/2
f 156/1/2 157/1/2 159/1/2
f 159/1/2 157/1/2 160/1/2
f 156/1/2 159/1/2 161/1/2
f 159/5/2 160/5/2 161/5/2
f 160/1/2 157/1/2 162/1/2
f 161/5/2 160/5/2 162/5/2
f 156/1/2 161/1/2 163/1/2
f 161/1/2 162/1/2 163/1/2
f 162/1/2 157/1/2 164/1/2
f 163/1/2 162/1/2 164/1/2
f 167/1/3 166/1/3 165/1/3
f 168/1/3 166/1/3 167/1/3
f 169/1/3 167/1/3 165/1/3
f 169/2/3 168/2/3 167/2/3
f 170/1/3 166/1/3 168/1/3
f 170/2/3 168/2/3 169/2/3
f 171/1/3 169/1/3 165/1/3
f 171/1/3 170/1/3 169/1/3
f 172/1/3 166/1/3 170/1/3
f 172/1/3 170/1/3 171/1/3
f 173/1/3 171/1/3 165/1/3
f 173/2/3 172/2/3 171/2/3
f 174/1/3 166/1/3 172/1/3
f 174/2/3 172/2/3 173/2/3
f 175/1/3 173/1/3 165/1/3
f 175/1/3 174/1/3 173/1/3
f 176/1/3 166/1/3 174/1/3
f 176/1/3 174/1/3 175/1/3
f 181/1/3 180/1/3 179/1/3
f 182/1/3 180/1/3 181/1/3
f 183/6/3 178/6/3 177/6/3
f 184/6/3 178/6/3 183/6/3
f 187/1/3 181/1/3 179/1/3
f 187/5/3 182/5/3 181/5/3
f 188/1/3 180/1/3 182/1/3
f 188/5/3 182/5/3 187/5/3
f 189/6/3 186/6/3 185/6/3
f 190/6/3 186/6/3 189/6/3
f 191/1/3 187/1/3 179/1/3
f 191/1/3 188/1/3 187/1/3
f 192/1/3 180/1/3 188/1/3
f 192/1/3 188/1/3 191/1/3
f 195/6/3 194/6/3 193/6/3
f 196/6/3 194/6/3 195/6/3
f 199/6/3 198/6/3 197/6/3
f 200/6/3 198/6/3 199/6/3
f 204/1/3 202/1/3 201/1/3
f 205/4/3 203/4/3 202/4/3
f 205/1/3 202/1/3 204/1/3
f 206/4/3 203/4/3 205/4/3
f 209/6/3 208/6/3 207/6/3
f 210/6/3 208/6/3 209/6/3
f 213/6/3 212/6/3 211/6/3
f 214/6/3 212/6/3 213/6/3
f 219/6/3 216/6/3 215/6/3
f 220/6/3 216/6/3 219/6/3
f 221/1/3 218/1/3 217/1/3
f 222/1/3 218/1/3 221/1/3
f 227/1/3 226/1/3 225/1/3
f 228/1/3 226/1/3 227/1/3
f 229/6/3 224/6/3 223/6/3
f 230/6/3 224/6/3 229/6/3
f 233/1/3 232/1/3 231/1/3
f 234/1/3 232/1/3 233/1/3
f 235/5/4 236/5/4 238/5/4
f 236/5/4 237/5/4 238/5/4
f 238/5/4 237/5/4 239/5/4
f 239/5/4 237/5/4 240/5/4
f 241/6/4 242/6/4 243/6/4
f 243/6/4 242/6/4 244/6/4
f 245/6/4 246/6/4 247/6/4
f 247/6/4 246/6/4 248/6/4
f 249/6/4 250/6/4 251/6/4
f 251/6/4 250/6/4 252/6/4
f 253/6/4 254/6/4 255/6/4
f 255/6/4 254/6/4 256/6/4
f 257/1/4 258/1/4 260/1/4
f 260/1/4 258/1/4 261/1/4
f 261/1/4 258/1/4 262/1/4
f 259/1/4 260/1/4 263/1/4
f 260/1/4 261/1/4 263/1/4
f 263/1/4 261/1/4 264/1/4
f 261/4/4 262/4/4 265/4/4
f 264/1/4 261/1/4 265/1/4
f 262/1/4 258/1/4 266/1/4
f 265/4/4 262/4/4 266/4/4
f 264/1/4 265/1/4 267/1/4
f 265/1/4 266/1/4 267/1/4
f 266/1/4 258/1/4 268/1/4
f 267/1/4 266/1/4 268/1/4
f 269/6/4 270/6/4 273/6/4
f 273/6/4 270/6/4 274/6/4
f 271/1/4 272/1/4 275/1/4
f 275/1/4 272/1/4 276/1/4
f 279/1/4 280/1/4 281/1/4
f 281/1/4 280/1/4 282/1/4
f 277/6/4 278/6/4 283/6/4
f 283/6/4 278/6/4 284/6/4
f 285/6/4 286/6/4 287/6/4
f 287/6/4 286/6/4 288/6/4
f 289/6/4 290/6/4 291/6/4
f 291/6/4 290/6/4 292/6/4
f 293/1/4 294/1/4 295/1/4
f 295/1/4 294/1/4 296/1/4
f 301/6/5 298/6/5 297/6/5
f 302/6/5 298/6/5 301/6/5
f 303/6/5 300/6/5 299/6/5
f 304/6/5 300/6/5 303/6/5
f 309/6/5 306/6/5 305/6/5
f 310/6/5 306/6/5 309/6/5
f 311/6/5 308/6/5 307/6/5
f 312/6/5 308/6/5 311/6/5
f 317/6/5 314/6/5 313/6/5
f 318/6/5 314/6/5 317/6/5
f 319/6/5 316/6/5 315/6/5
f 320/6/5 316/6/5 319/6/5
f 325/6/5 322/6/5 321/6/5
f 326/6/5 322/6/5 325/6/5
f 327/6/5 324/6/5 323/6/5
f 328/6/5 324/6/5 327/6/5
f 333/6/5 330/6/5 329/6/5
f 334/6/5 330/6/5 333/6/5
f 335/6/5 332/6/5 331/6/5
f 336/6/5 332/6/5 335/6/5
f 341/6/5 338/6/5 337/6/5
f 342/6/5 338/6/5 341/6/5
f 343/6/5 340/6/5 339/6/5
f 344/6/5 340/6/5 343/6/5
f 347/1/5 346/1/5 345/1/5
f 348/1/5 346/1/5 347/1/5
f 349/1/5 346/1/5 348/1/5
f 350/1/5 346/1/5 349/1/5
f 352/1/5 349/1/5 348/1/5
f 353/1/5 349/1/5 352/1/5
f 355/1/5 352/1/5 351/1/5
f 355/1/5 354/1/5 353/1/5
f 355/1/5 353/1/5 352/1/5
f 356/1/5 354/1/5 355/1/5
f 357/1/5 354/1/5 356/1/5
f 358/1/5 354/1/5 357/1/5
f 360/1/5 357/1/5 356/1/5
f 361/1/5 357/1/5 360/1/5
f 363/1/5 360/1/5 359/1/5
f 363/1/5 362/1/5 361/1/5
f 363/1/5 361/1/5 360/1/5
f 364/1/5 362/1/5 363/1/5
f 367/1/5 366/1/5 365/1/5
f 368/1/5 366/1/5 367/1/5
f 369/1/6 370/1/6 371/1/6
f 371/1/6 370/1/6 372/1/6
f 372/1/6 370/1/6 373/1/6
f 373/1/6 370/1/6 374/1/6
f 372/1/6 373/1/6 376/1/6
f 376/1/6 373/1/6 377/1/6
f 375/1/6 376/1/6 379/1/6
f 377/1/6 378/1/6 379/1/6
f 376/1/6 377/1/6 379/1/6
f 379/1/6 378/1/6 380/1/6
f 381/1/6 382/1/6 385/1/6
f 385/1/6 382/1/6 386/1/6
f 383/1/6 384/1/6 387/1/6
f 387/1/6 384/1/6 388/1/6
f 389/1/6 390/1/6 391/1/6
f 391/1/6 390/1/6 392/1/6
f 393/1/6 394/1/6 397/1/6
f 395/1/6 396/1/6 398/1/6
f 393/1/6 397/1/6 399/1/6
f 397/1/6 398/1/6 399/1/6
f 398/1/6 396/1/6 400/1/6
f 399/1/6 398/1/6 400/1/6
f 401/4/6 402/4/6 403/4/6
f 403/4/6 402/4/6 404/4/6
f 405/1/6 406/1/6 407/1/6
f 407/1/6 406/1/6 408/1/6
