# MagicaVoxel @ Ephtracy

# group
g pickuptruck_white

# material
mtllib pickuptruck_white.mtl
usemtl palette

# normals
vn -1 0 0
vn 1 0 0
vn 0 0 1
vn 0 0 -1
vn 0 -1 0
vn 0 1 0

# texcoords
vt 0.638672 0.5
vt 0.744141 0.5
vt 0.958984 0.5
vt 0.962891 0.5
vt 0.974609 0.5
vt 0.982422 0.5
vt 0.986328 0.5
vt 0.990234 0.5

# verts
v -5.5 0 9.5
v -5.5 0 5.5
v -5.5 0 -6.5
v -5.5 0 -10.5
v -5.5 1 10.5
v -5.5 1 9.5
v -5.5 1 5.5
v -5.5 1 4.5
v -5.5 1 -5.5
v -5.5 1 -6.5
v -5.5 1 -10.5
v -5.5 1 -11.5
v -5.5 2 8.5
v -5.5 2 6.5
v -5.5 2 -7.5
v -5.5 2 -9.5
v -5.5 3 13.5
v -5.5 3 10.5
v -5.5 3 4.5
v -5.5 3 -5.5
v -5.5 3 -11.5
v -5.5 3 -13.5
v -5.5 4 8.5
v -5.5 4 6.5
v -5.5 4 -7.5
v -5.5 4 -9.5
v -5.5 5 10.5
v -5.5 5 9.5
v -5.5 5 5.5
v -5.5 5 4.5
v -5.5 5 -5.5
v -5.5 5 -6.5
v -5.5 5 -10.5
v -5.5 5 -11.5
v -5.5 6 9.5
v -5.5 6 5.5
v -5.5 6 -6.5
v -5.5 6 -10.5
v -5.5 10 13.5
v -5.5 10 10.5
v -5.5 10 1.5
v -5.5 10 -13.5
v -5.5 12 9.5
v -5.5 12 2.5
v -5.5 18 9.5
v -5.5 18 2.5
v -5.5 19 10.5
v -5.5 19 1.5
v 3.5 0 9.5
v 3.5 0 5.5
v 3.5 0 -6.5
v 3.5 0 -10.5
v 3.5 1 10.5
v 3.5 1 9.5
v 3.5 1 5.5
v 3.5 1 4.5
v 3.5 1 -5.5
v 3.5 1 -6.5
v 3.5 1 -10.5
v 3.5 1 -11.5
v 3.5 3 10.5
v 3.5 3 4.5
v 3.5 3 -5.5
v 3.5 3 -11.5
v 3.5 6 -6.5
v 3.5 6 -10.5
v 3.5 7 -6.5
v 3.5 7 -10.5
v 4.5 6 1.5
v 4.5 6 -6.5
v 4.5 6 -10.5
v 4.5 6 -12.5
v 4.5 7 -6.5
v 4.5 7 -10.5
v 4.5 10 1.5
v 4.5 10 -12.5
v 4.5 11 9.5
v 4.5 11 7.5
v 4.5 11 2.5
v 4.5 12 9.5
v 4.5 12 2.5
v 4.5 18 9.5
v 4.5 18 2.5
v -4.5 6 1.5
v -4.5 6 -6.5
v -4.5 6 -10.5
v -4.5 6 -12.5
v -4.5 7 -6.5
v -4.5 7 -10.5
v -4.5 10 1.5
v -4.5 10 -12.5
v -4.5 11 9.5
v -4.5 11 7.5
v -4.5 11 2.5
v -4.5 12 9.5
v -4.5 12 2.5
v -4.5 18 9.5
v -4.5 18 2.5
v -3.5 0 9.5
v -3.5 0 5.5
v -3.5 0 -6.5
v -3.5 0 -10.5
v -3.5 1 10.5
v -3.5 1 9.5
v -3.5 1 5.5
v -3.5 1 4.5
v -3.5 1 -5.5
v -3.5 1 -6.5
v -3.5 1 -10.5
v -3.5 1 -11.5
v -3.5 3 10.5
v -3.5 3 4.5
v -3.5 3 -5.5
v -3.5 3 -11.5
v -3.5 6 -6.5
v -3.5 6 -10.5
v -3.5 7 -6.5
v -3.5 7 -10.5
v 5.5 0 9.5
v 5.5 0 5.5
v 5.5 0 -6.5
v 5.5 0 -10.5
v 5.5 1 10.5
v 5.5 1 9.5
v 5.5 1 5.5
v 5.5 1 4.5
v 5.5 1 -5.5
v 5.5 1 -6.5
v 5.5 1 -10.5
v 5.5 1 -11.5
v 5.5 2 8.5
v 5.5 2 6.5
v 5.5 2 -7.5
v 5.5 2 -9.5
v 5.5 3 13.5
v 5.5 3 10.5
v 5.5 3 4.5
v 5.5 3 -5.5
v 5.5 3 -11.5
v 5.5 3 -13.5
v 5.5 4 8.5
v 5.5 4 6.5
v 5.5 4 -7.5
v 5.5 4 -9.5
v 5.5 5 10.5
v 5.5 5 9.5
v 5.5 5 5.5
v 5.5 5 4.5
v 5.5 5 -5.5
v 5.5 5 -6.5
v 5.5 5 -10.5
v 5.5 5 -11.5
v 5.5 6 9.5
v 5.5 6 5.5
v 5.5 6 -6.5
v 5.5 6 -10.5
v 5.5 10 13.5
v 5.5 10 10.5
v 5.5 10 1.5
v 5.5 10 -13.5
v 5.5 12 9.5
v 5.5 12 2.5
v 5.5 18 9.5
v 5.5 18 2.5
v 5.5 19 10.5
v 5.5 19 1.5
v -5.5 3 13.5
v -5.5 10 13.5
v -4.5 6 13.5
v -4.5 9 13.5
v -1.5 6 13.5
v -1.5 9 13.5
v 1.5 6 13.5
v 1.5 9 13.5
v 4.5 6 13.5
v 4.5 9 13.5
v 5.5 3 13.5
v 5.5 10 13.5
v -5.5 1 10.5
v -5.5 3 10.5
v -5.5 10 10.5
v -5.5 19 10.5
v -4.5 11 10.5
v -4.5 18 10.5
v -3.5 1 10.5
v -3.5 3 10.5
v 3.5 1 10.5
v 3.5 3 10.5
v 4.5 11 10.5
v 4.5 18 10.5
v 5.5 1 10.5
v 5.5 3 10.5
v 5.5 10 10.5
v 5.5 19 10.5
v -5.5 0 9.5
v -5.5 1 9.5
v -3.5 0 9.5
v -3.5 1 9.5
v 3.5 0 9.5
v 3.5 1 9.5
v 5.5 0 9.5
v 5.5 1 9.5
v -4.5 11 2.5
v -4.5 12 2.5
v -4.5 18 2.5
v 4.5 11 2.5
v 4.5 12 2.5
v 4.5 18 2.5
v -5.5 1 -5.5
v -5.5 3 -5.5
v -3.5 1 -5.5
v -3.5 3 -5.5
v 3.5 1 -5.5
v 3.5 3 -5.5
v 5.5 1 -5.5
v 5.5 3 -5.5
v -5.5 0 -6.5
v -5.5 1 -6.5
v -4.5 6 -6.5
v -4.5 7 -6.5
v -3.5 0 -6.5
v -3.5 1 -6.5
v -3.5 6 -6.5
v -3.5 7 -6.5
v 3.5 0 -6.5
v 3.5 1 -6.5
v 3.5 6 -6.5
v 3.5 7 -6.5
v 4.5 6 -6.5
v 4.5 7 -6.5
v 5.5 0 -6.5
v 5.5 1 -6.5
v -4.5 6 -12.5
v -4.5 10 -12.5
v 4.5 6 -12.5
v 4.5 10 -12.5
v -4.5 11 9.5
v -4.5 12 9.5
v -4.5 18 9.5
v 4.5 11 9.5
v 4.5 12 9.5
v 4.5 18 9.5
v -5.5 0 5.5
v -5.5 1 5.5
v -3.5 0 5.5
v -3.5 1 5.5
v 3.5 0 5.5
v 3.5 1 5.5
v 5.5 0 5.5
v 5.5 1 5.5
v -5.5 1 4.5
v -5.5 3 4.5
v -3.5 1 4.5
v -3.5 3 4.5
v 3.5 1 4.5
v 3.5 3 4.5
v 5.5 1 4.5
v 5.5 3 4.5
v -5.5 10 1.5
v -5.5 19 1.5
v -4.5 6 1.5
v -4.5 10 1.5
v 4.5 6 1.5
v 4.5 10 1.5
v 5.5 10 1.5
v 5.5 19 1.5
v -5.5 0 -10.5
v -5.5 1 -10.5
v -4.5 6 -10.5
v -4.5 7 -10.5
v -3.5 0 -10.5
v -3.5 1 -10.5
v -3.5 6 -10.5
v -3.5 7 -10.5
v 3.5 0 -10.5
v 3.5 1 -10.5
v 3.5 6 -10.5
v 3.5 7 -10.5
v 4.5 6 -10.5
v 4.5 7 -10.5
v 5.5 0 -10.5
v 5.5 1 -10.5
v -5.5 1 -11.5
v -5.5 3 -11.5
v -3.5 1 -11.5
v -3.5 3 -11.5
v 3.5 1 -11.5
v 3.5 3 -11.5
v 5.5 1 -11.5
v 5.5 3 -11.5
v -5.5 3 -13.5
v -5.5 10 -13.5
v 5.5 3 -13.5
v 5.5 10 -13.5
v -5.5 0 9.5
v -3.5 0 9.5
v 3.5 0 9.5
v 5.5 0 9.5
v -5.5 0 5.5
v -3.5 0 5.5
v 3.5 0 5.5
v 5.5 0 5.5
v -5.5 0 -6.5
v -3.5 0 -6.5
v 3.5 0 -6.5
v 5.5 0 -6.5
v -5.5 0 -10.5
v -3.5 0 -10.5
v 3.5 0 -10.5
v 5.5 0 -10.5
v -5.5 1 10.5
v -3.5 1 10.5
v 3.5 1 10.5
v 5.5 1 10.5
v -5.5 1 9.5
v -3.5 1 9.5
v 3.5 1 9.5
v 5.5 1 9.5
v -5.5 1 5.5
v -3.5 1 5.5
v 3.5 1 5.5
v 5.5 1 5.5
v -5.5 1 4.5
v -3.5 1 4.5
v 3.5 1 4.5
v 5.5 1 4.5
v -5.5 1 -5.5
v -3.5 1 -5.5
v 3.5 1 -5.5
v 5.5 1 -5.5
v -5.5 1 -6.5
v -3.5 1 -6.5
v 3.5 1 -6.5
v 5.5 1 -6.5
v -5.5 1 -10.5
v -3.5 1 -10.5
v 3.5 1 -10.5
v 5.5 1 -10.5
v -5.5 1 -11.5
v -3.5 1 -11.5
v 3.5 1 -11.5
v 5.5 1 -11.5
v -5.5 3 13.5
v 5.5 3 13.5
v -5.5 3 10.5
v -3.5 3 10.5
v 3.5 3 10.5
v 5.5 3 10.5
v -5.5 3 4.5
v -3.5 3 4.5
v 3.5 3 4.5
v 5.5 3 4.5
v -5.5 3 -5.5
v -3.5 3 -5.5
v 3.5 3 -5.5
v 5.5 3 -5.5
v -5.5 3 -11.5
v -3.5 3 -11.5
v 3.5 3 -11.5
v 5.5 3 -11.5
v -5.5 3 -13.5
v 5.5 3 -13.5
v -4.5 18 9.5
v 4.5 18 9.5
v -4.5 18 2.5
v 4.5 18 2.5
v -4.5 6 1.5
v 4.5 6 1.5
v -4.5 6 -6.5
v -3.5 6 -6.5
v 3.5 6 -6.5
v 4.5 6 -6.5
v -4.5 6 -10.5
v -3.5 6 -10.5
v 3.5 6 -10.5
v 4.5 6 -10.5
v -4.5 6 -12.5
v 4.5 6 -12.5
v -4.5 7 -6.5
v -3.5 7 -6.5
v 3.5 7 -6.5
v 4.5 7 -6.5
v -4.5 7 -10.5
v -3.5 7 -10.5
v 3.5 7 -10.5
v 4.5 7 -10.5
v -5.5 10 13.5
v 5.5 10 13.5
v -5.5 10 10.5
v 5.5 10 10.5
v -5.5 10 1.5
v -4.5 10 1.5
v 4.5 10 1.5
v 5.5 10 1.5
v -4.5 10 -12.5
v 4.5 10 -12.5
v -5.5 10 -13.5
v 5.5 10 -13.5
v -4.5 11 9.5
v 4.5 11 9.5
v -4.5 11 7.5
v 4.5 11 7.5
v -4.5 11 2.5
v 4.5 11 2.5
v -5.5 19 10.5
v 5.5 19 10.5
v -5.5 19 1.5
v 5.5 19 1.5

# faces
f 6/8/1 2/8/1 1/8/1
f 7/8/1 2/8/1 6/8/1
f 10/8/1 4/8/1 3/8/1
f 11/8/1 4/8/1 10/8/1
f 13/8/1 8/8/1 7/8/1
f 13/8/1 6/8/1 5/8/1
f 13/8/1 7/8/1 6/8/1
f 14/8/1 8/8/1 13/8/1
f 15/8/1 12/8/1 11/8/1
f 15/8/1 11/8/1 10/8/1
f 15/8/1 10/8/1 9/8/1
f 16/8/1 12/8/1 15/8/1
f 18/8/1 13/8/1 5/8/1
f 19/8/1 8/8/1 14/8/1
f 20/8/1 15/8/1 9/8/1
f 21/8/1 12/8/1 16/8/1
f 23/5/1 14/5/1 13/5/1
f 23/8/1 13/8/1 18/8/1
f 24/8/1 19/8/1 14/8/1
f 24/5/1 14/5/1 23/5/1
f 25/5/1 16/5/1 15/5/1
f 25/8/1 15/8/1 20/8/1
f 26/8/1 21/8/1 16/8/1
f 26/5/1 16/5/1 25/5/1
f 27/4/1 18/4/1 17/4/1
f 27/8/1 23/8/1 18/8/1
f 27/8/1 24/8/1 23/8/1
f 28/8/1 24/8/1 27/8/1
f 29/8/1 19/8/1 24/8/1
f 29/8/1 24/8/1 28/8/1
f 30/4/1 20/4/1 19/4/1
f 30/8/1 19/8/1 29/8/1
f 31/8/1 26/8/1 25/8/1
f 31/4/1 20/4/1 30/4/1
f 31/8/1 25/8/1 20/8/1
f 32/8/1 26/8/1 31/8/1
f 33/8/1 21/8/1 26/8/1
f 33/8/1 26/8/1 32/8/1
f 34/4/1 22/4/1 21/4/1
f 34/8/1 21/8/1 33/8/1
f 35/8/1 29/8/1 28/8/1
f 35/4/1 28/4/1 27/4/1
f 36/4/1 32/4/1 31/4/1
f 36/8/1 29/8/1 35/8/1
f 36/4/1 30/4/1 29/4/1
f 36/4/1 31/4/1 30/4/1
f 37/8/1 33/8/1 32/8/1
f 37/4/1 32/4/1 36/4/1
f 38/4/1 34/4/1 33/4/1
f 38/8/1 33/8/1 37/8/1
f 39/4/1 35/4/1 27/4/1
f 39/4/1 36/4/1 35/4/1
f 39/4/1 38/4/1 37/4/1
f 39/4/1 27/4/1 17/4/1
f 39/4/1 37/4/1 36/4/1
f 40/4/1 38/4/1 39/4/1
f 41/4/1 38/4/1 40/4/1
f 42/4/1 34/4/1 38/4/1
f 42/4/1 38/4/1 41/4/1
f 42/4/1 22/4/1 34/4/1
f 43/4/1 41/4/1 40/4/1
f 44/4/1 41/4/1 43/4/1
f 45/4/1 43/4/1 40/4/1
f 45/7/1 44/7/1 43/7/1
f 46/4/1 41/4/1 44/4/1
f 46/7/1 44/7/1 45/7/1
f 47/4/1 45/4/1 40/4/1
f 47/4/1 46/4/1 45/4/1
f 48/4/1 41/4/1 46/4/1
f 48/4/1 46/4/1 47/4/1
f 54/8/1 50/8/1 49/8/1
f 55/8/1 50/8/1 54/8/1
f 58/8/1 52/8/1 51/8/1
f 59/8/1 52/8/1 58/8/1
f 61/8/1 56/8/1 55/8/1
f 61/8/1 54/8/1 53/8/1
f 61/8/1 55/8/1 54/8/1
f 62/8/1 56/8/1 61/8/1
f 63/8/1 60/8/1 59/8/1
f 63/8/1 59/8/1 58/8/1
f 63/8/1 58/8/1 57/8/1
f 64/8/1 60/8/1 63/8/1
f 67/4/1 66/4/1 65/4/1
f 68/4/1 66/4/1 67/4/1
f 73/4/1 70/4/1 69/4/1
f 74/4/1 72/4/1 71/4/1
f 75/4/1 73/4/1 69/4/1
f 75/4/1 74/4/1 73/4/1
f 76/4/1 72/4/1 74/4/1
f 76/4/1 74/4/1 75/4/1
f 80/4/1 78/4/1 77/4/1
f 80/4/1 79/4/1 78/4/1
f 81/4/1 79/4/1 80/4/1
f 82/7/1 81/7/1 80/7/1
f 83/7/1 81/7/1 82/7/1
f 84/4/2 85/4/2 88/4/2
f 86/4/2 87/4/2 89/4/2
f 84/4/2 88/4/2 90/4/2
f 88/4/2 89/4/2 90/4/2
f 89/4/2 87/4/2 91/4/2
f 90/4/2 89/4/2 91/4/2
f 92/4/2 93/4/2 95/4/2
f 93/4/2 94/4/2 95/4/2
f 95/4/2 94/4/2 96/4/2
f 95/7/2 96/7/2 97/7/2
f 97/7/2 96/7/2 98/7/2
f 99/8/2 100/8/2 104/8/2
f 104/8/2 100/8/2 105/8/2
f 101/8/2 102/8/2 108/8/2
f 108/8/2 102/8/2 109/8/2
f 105/8/2 106/8/2 111/8/2
f 103/8/2 104/8/2 111/8/2
f 104/8/2 105/8/2 111/8/2
f 111/8/2 106/8/2 112/8/2
f 109/8/2 110/8/2 113/8/2
f 108/8/2 109/8/2 113/8/2
f 107/8/2 108/8/2 113/8/2
f 113/8/2 110/8/2 114/8/2
f 115/4/2 116/4/2 117/4/2
f 117/4/2 116/4/2 118/4/2
f 119/8/2 120/8/2 124/8/2
f 124/8/2 120/8/2 125/8/2
f 121/8/2 122/8/2 128/8/2
f 128/8/2 122/8/2 129/8/2
f 125/8/2 126/8/2 131/8/2
f 123/8/2 124/8/2 131/8/2
f 124/8/2 125/8/2 131/8/2
f 131/8/2 126/8/2 132/8/2
f 129/8/2 130/8/2 133/8/2
f 128/8/2 129/8/2 133/8/2
f 127/8/2 128/8/2 133/8/2
f 133/8/2 130/8/2 134/8/2
f 123/8/2 131/8/2 136/8/2
f 132/8/2 126/8/2 137/8/2
f 127/8/2 133/8/2 138/8/2
f 134/8/2 130/8/2 139/8/2
f 131/5/2 132/5/2 141/5/2
f 136/8/2 131/8/2 141/8/2
f 132/8/2 137/8/2 142/8/2
f 141/5/2 132/5/2 142/5/2
f 133/5/2 134/5/2 143/5/2
f 138/8/2 133/8/2 143/8/2
f 134/8/2 139/8/2 144/8/2
f 143/5/2 134/5/2 144/5/2
f 135/4/2 136/4/2 145/4/2
f 136/8/2 141/8/2 145/8/2
f 141/8/2 142/8/2 145/8/2
f 145/8/2 142/8/2 146/8/2
f 142/8/2 137/8/2 147/8/2
f 146/8/2 142/8/2 147/8/2
f 137/4/2 138/4/2 148/4/2
f 147/8/2 137/8/2 148/8/2
f 143/8/2 144/8/2 149/8/2
f 148/4/2 138/4/2 149/4/2
f 138/8/2 143/8/2 149/8/2
f 149/8/2 144/8/2 150/8/2
f 144/8/2 139/8/2 151/8/2
f 150/8/2 144/8/2 151/8/2
f 139/4/2 140/4/2 152/4/2
f 151/8/2 139/8/2 152/8/2
f 146/8/2 147/8/2 153/8/2
f 145/4/2 146/4/2 153/4/2
f 149/4/2 150/4/2 154/4/2
f 153/8/2 147/8/2 154/8/2
f 147/4/2 148/4/2 154/4/2
f 148/4/2 149/4/2 154/4/2
f 150/8/2 151/8/2 155/8/2
f 154/4/2 150/4/2 155/4/2
f 151/4/2 152/4/2 156/4/2
f 155/8/2 151/8/2 156/8/2
f 145/4/2 153/4/2 157/4/2
f 153/4/2 154/4/2 157/4/2
f 155/4/2 156/4/2 157/4/2
f 135/4/2 145/4/2 157/4/2
f 154/4/2 155/4/2 157/4/2
f 157/4/2 156/4/2 158/4/2
f 158/4/2 156/4/2 159/4/2
f 156/4/2 152/4/2 160/4/2
f 159/4/2 156/4/2 160/4/2
f 152/4/2 140/4/2 160/4/2
f 158/4/2 159/4/2 161/4/2
f 161/4/2 159/4/2 162/4/2
f 158/4/2 161/4/2 163/4/2
f 161/7/2 162/7/2 163/7/2
f 162/4/2 159/4/2 164/4/2
f 163/7/2 162/7/2 164/7/2
f 158/4/2 163/4/2 165/4/2
f 163/4/2 164/4/2 165/4/2
f 164/4/2 159/4/2 166/4/2
f 165/4/2 164/4/2 166/4/2
f 169/4/3 168/4/3 167/4/3
f 170/4/3 168/4/3 169/4/3
f 171/4/3 169/4/3 167/4/3
f 171/3/3 170/3/3 169/3/3
f 172/4/3 168/4/3 170/4/3
f 172/3/3 170/3/3 171/3/3
f 173/4/3 171/4/3 167/4/3
f 173/4/3 172/4/3 171/4/3
f 174/4/3 168/4/3 172/4/3
f 174/4/3 172/4/3 173/4/3
f 175/4/3 173/4/3 167/4/3
f 175/3/3 174/3/3 173/3/3
f 176/4/3 168/4/3 174/4/3
f 176/3/3 174/3/3 175/3/3
f 177/4/3 175/4/3 167/4/3
f 177/4/3 176/4/3 175/4/3
f 178/4/3 168/4/3 176/4/3
f 178/4/3 176/4/3 177/4/3
f 183/4/3 182/4/3 181/4/3
f 184/4/3 182/4/3 183/4/3
f 185/8/3 180/8/3 179/8/3
f 186/8/3 180/8/3 185/8/3
f 189/4/3 183/4/3 181/4/3
f 189/7/3 184/7/3 183/7/3
f 190/4/3 182/4/3 184/4/3
f 190/7/3 184/7/3 189/7/3
f 191/8/3 188/8/3 187/8/3
f 192/8/3 188/8/3 191/8/3
f 193/4/3 189/4/3 181/4/3
f 193/4/3 190/4/3 189/4/3
f 194/4/3 182/4/3 190/4/3
f 194/4/3 190/4/3 193/4/3
f 197/8/3 196/8/3 195/8/3
f 198/8/3 196/8/3 197/8/3
f 201/8/3 200/8/3 199/8/3
f 202/8/3 200/8/3 201/8/3
f 206/4/3 204/4/3 203/4/3
f 206/4/3 205/4/3 204/4/3
f 207/4/3 205/4/3 206/4/3
f 208/4/3 205/4/3 207/4/3
f 211/8/3 210/8/3 209/8/3
f 212/8/3 210/8/3 211/8/3
f 215/8/3 214/8/3 213/8/3
f 216/8/3 214/8/3 215/8/3
f 221/8/3 218/8/3 217/8/3
f 222/8/3 218/8/3 221/8/3
f 223/4/3 220/4/3 219/4/3
f 224/4/3 220/4/3 223/4/3
f 229/4/3 228/4/3 227/4/3
f 230/4/3 228/4/3 229/4/3
f 231/8/3 226/8/3 225/8/3
f 232/8/3 226/8/3 231/8/3
f 235/4/3 234/4/3 233/4/3
f 236/4/3 234/4/3 235/4/3
f 237/7/4 238/7/4 240/7/4
f 238/7/4 239/7/4 240/7/4
f 240/7/4 239/7/4 241/7/4
f 241/7/4 239/7/4 242/7/4
f 243/8/4 244/8/4 245/8/4
f 245/8/4 244/8/4 246/8/4
f 247/8/4 248/8/4 249/8/4
f 249/8/4 248/8/4 250/8/4
f 251/8/4 252/8/4 253/8/4
f 253/8/4 252/8/4 254/8/4
f 255/8/4 256/8/4 257/8/4
f 257/8/4 256/8/4 258/8/4
f 259/4/4 260/4/4 262/4/4
f 261/4/4 262/4/4 263/4/4
f 262/4/4 260/4/4 264/4/4
f 263/4/4 262/4/4 264/4/4
f 264/4/4 260/4/4 265/4/4
f 265/4/4 260/4/4 266/4/4
f 267/8/4 268/8/4 271/8/4
f 271/8/4 268/8/4 272/8/4
f 269/4/4 270/4/4 273/4/4
f 273/4/4 270/4/4 274/4/4
f 277/4/4 278/4/4 279/4/4
f 279/4/4 278/4/4 280/4/4
f 275/8/4 276/8/4 281/8/4
f 281/8/4 276/8/4 282/8/4
f 283/8/4 284/8/4 285/8/4
f 285/8/4 284/8/4 286/8/4
f 287/8/4 288/8/4 289/8/4
f 289/8/4 288/8/4 290/8/4
f 291/4/4 292/4/4 293/4/4
f 293/4/4 292/4/4 294/4/4
f 299/8/5 296/8/5 295/8/5
f 300/8/5 296/8/5 299/8/5
f 301/8/5 298/8/5 297/8/5
f 302/8/5 298/8/5 301/8/5
f 307/8/5 304/8/5 303/8/5
f 308/8/5 304/8/5 307/8/5
f 309/8/5 306/8/5 305/8/5
f 310/8/5 306/8/5 309/8/5
f 315/8/5 312/8/5 311/8/5
f 316/8/5 312/8/5 315/8/5
f 317/8/5 314/8/5 313/8/5
f 318/8/5 314/8/5 317/8/5
f 323/8/5 320/8/5 319/8/5
f 324/8/5 320/8/5 323/8/5
f 325/8/5 322/8/5 321/8/5
f 326/8/5 322/8/5 325/8/5
f 331/8/5 328/8/5 327/8/5
f 332/8/5 328/8/5 331/8/5
f 333/8/5 330/8/5 329/8/5
f 334/8/5 330/8/5 333/8/5
f 339/8/5 336/8/5 335/8/5
f 340/8/5 336/8/5 339/8/5
f 341/8/5 338/8/5 337/8/5
f 342/8/5 338/8/5 341/8/5
f 345/4/5 344/4/5 343/4/5
f 346/4/5 344/4/5 345/4/5
f 347/4/5 344/4/5 346/4/5
f 348/4/5 344/4/5 347/4/5
f 350/4/5 347/4/5 346/4/5
f 351/4/5 347/4/5 350/4/5
f 353/4/5 350/4/5 349/4/5
f 353/4/5 352/4/5 351/4/5
f 353/4/5 351/4/5 350/4/5
f 354/4/5 352/4/5 353/4/5
f 355/4/5 352/4/5 354/4/5
f 356/4/5 352/4/5 355/4/5
f 358/4/5 355/4/5 354/4/5
f 359/4/5 355/4/5 358/4/5
f 361/4/5 358/4/5 357/4/5
f 361/4/5 360/4/5 359/4/5
f 361/4/5 359/4/5 358/4/5
f 362/4/5 360/4/5 361/4/5
f 365/4/5 364/4/5 363/4/5
f 366/4/5 364/4/5 365/4/5
f 367/4/6 368/4/6 369/4/6
f 369/4/6 368/4/6 370/4/6
f 370/4/6 368/4/6 371/4/6
f 371/4/6 368/4/6 372/4/6
f 370/4/6 371/4/6 374/4/6
f 374/4/6 371/4/6 375/4/6
f 373/4/6 374/4/6 377/4/6
f 375/4/6 376/4/6 377/4/6
f 374/4/6 375/4/6 377/4/6
f 377/4/6 376/4/6 378/4/6
f 379/4/6 380/4/6 383/4/6
f 383/4/6 380/4/6 384/4/6
f 381/4/6 382/4/6 385/4/6
f 385/4/6 382/4/6 386/4/6
f 387/4/6 388/4/6 389/4/6
f 389/4/6 388/4/6 390/4/6
f 391/4/6 392/4/6 395/4/6
f 393/4/6 394/4/6 396/4/6
f 391/4/6 395/4/6 397/4/6
f 395/4/6 396/4/6 397/4/6
f 396/4/6 394/4/6 398/4/6
f 397/4/6 396/4/6 398/4/6
f 399/6/6 400/6/6 401/6/6
f 401/6/6 400/6/6 402/6/6
f 401/2/6 402/2/6 403/2/6
f 403/2/6 402/2/6 404/2/6
f 405/4/6 406/4/6 407/4/6
f 407/4/6 406/4/6 408/4/6
