# MagicaVoxel @ Ephtracy

# group
g truckcab_brown

# material
mtllib truckcab_brown.mtl
usemtl palette

# normals
vn -1 0 0
vn 1 0 0
vn 0 0 1
vn 0 0 -1
vn 0 -1 0
vn 0 1 0

# texcoords
vt 0.533203 0.5
vt 0.958984 0.5
vt 0.974609 0.5
vt 0.978516 0.5
vt 0.982422 0.5
vt 0.990234 0.5

# verts
v -7 0 9
v -7 0 5
v -7 0 -7
v -7 0 -11
v -7 1 10
v -7 1 9
v -7 1 5
v -7 1 4
v -7 1 -6
v -7 1 -7
v -7 1 -11
v -7 1 -12
v -7 2 8
v -7 2 6
v -7 2 -8
v -7 2 -10
v -7 4 8
v -7 4 6
v -7 4 -8
v -7 4 -10
v -7 5 10
v -7 5 9
v -7 5 5
v -7 5 4
v -7 5 -6
v -7 5 -7
v -7 5 -11
v -7 5 -12
v -7 6 9
v -7 6 5
v -7 6 -7
v -7 6 -11
v -6 3 14
v -6 3 11
v -6 3 10
v -6 3 4
v -6 3 3
v -6 3 -5
v -6 3 -6
v -6 3 -12
v -6 3 -13
v -6 3 -14
v -6 5 10
v -6 5 9
v -6 5 5
v -6 5 4
v -6 5 -6
v -6 5 -7
v -6 5 -11
v -6 5 -12
v -6 6 11
v -6 6 10
v -6 6 9
v -6 6 5
v -6 6 4
v -6 6 3
v -6 6 -5
v -6 6 -6
v -6 6 -7
v -6 6 -11
v -6 6 -12
v -6 6 -13
v -6 7 10
v -6 7 4
v -6 7 -6
v -6 7 -12
v -6 8 1
v -6 8 -14
v -6 13 13
v -6 13 11
v -6 14 11
v -6 14 9
v -6 15 9
v -6 15 7
v -6 16 7
v -6 16 6
v -6 21 13
v -6 21 6
v -6 22 14
v -6 22 1
v -3 8 -6
v -3 8 -12
v -3 10 -6
v -3 10 -12
v 5 0 9
v 5 0 5
v 5 0 -7
v 5 0 -11
v 5 1 10
v 5 1 9
v 5 1 5
v 5 1 4
v 5 1 -6
v 5 1 -7
v 5 1 -11
v 5 1 -12
v 5 3 10
v 5 3 4
v 5 3 -6
v 5 3 -12
v -5 0 9
v -5 0 5
v -5 0 -7
v -5 0 -11
v -5 1 10
v -5 1 9
v -5 1 5
v -5 1 4
v -5 1 -6
v -5 1 -7
v -5 1 -11
v -5 1 -12
v -5 3 10
v -5 3 4
v -5 3 -6
v -5 3 -12
v 3 8 -6
v 3 8 -12
v 3 10 -6
v 3 10 -12
v 6 3 14
v 6 3 11
v 6 3 10
v 6 3 4
v 6 3 3
v 6 3 -5
v 6 3 -6
v 6 3 -12
v 6 3 -13
v 6 3 -14
v 6 5 10
v 6 5 9
v 6 5 5
v 6 5 4
v 6 5 -6
v 6 5 -7
v 6 5 -11
v 6 5 -12
v 6 6 11
v 6 6 10
v 6 6 9
v 6 6 5
v 6 6 4
v 6 6 3
v 6 6 -5
v 6 6 -6
v 6 6 -7
v 6 6 -11
v 6 6 -12
v 6 6 -13
v 6 7 10
v 6 7 4
v 6 7 -6
v 6 7 -12
v 6 8 1
v 6 8 -14
v 6 13 13
v 6 13 11
v 6 14 11
v 6 14 9
v 6 15 9
v 6 15 7
v 6 16 7
v 6 16 6
v 6 21 13
v 6 21 6
v 6 22 14
v 6 22 1
v 7 0 9
v 7 0 5
v 7 0 -7
v 7 0 -11
v 7 1 10
v 7 1 9
v 7 1 5
v 7 1 4
v 7 1 -6
v 7 1 -7
v 7 1 -11
v 7 1 -12
v 7 2 8
v 7 2 6
v 7 2 -8
v 7 2 -10
v 7 4 8
v 7 4 6
v 7 4 -8
v 7 4 -10
v 7 5 10
v 7 5 9
v 7 5 5
v 7 5 4
v 7 5 -6
v 7 5 -7
v 7 5 -11
v 7 5 -12
v 7 6 9
v 7 6 5
v 7 6 -7
v 7 6 -11
v -6 3 14
v -6 22 14
v -5 5 14
v -5 7 14
v -5 13 14
v -5 21 14
v -2 5 14
v -2 7 14
v 2 5 14
v 2 7 14
v 5 5 14
v 5 7 14
v 5 13 14
v 5 21 14
v 6 3 14
v 6 22 14
v -7 1 10
v -7 5 10
v -6 3 10
v -6 5 10
v -5 1 10
v -5 3 10
v 5 1 10
v 5 3 10
v 6 3 10
v 6 5 10
v 7 1 10
v 7 5 10
v -7 0 9
v -7 1 9
v -7 5 9
v -7 6 9
v -6 5 9
v -6 6 9
v -5 0 9
v -5 1 9
v 5 0 9
v 5 1 9
v 6 5 9
v 6 6 9
v 7 0 9
v 7 1 9
v 7 5 9
v 7 6 9
v -7 1 -6
v -7 5 -6
v -6 3 -6
v -6 5 -6
v -5 1 -6
v -5 3 -6
v -3 8 -6
v -3 10 -6
v 3 8 -6
v 3 10 -6
v 5 1 -6
v 5 3 -6
v 6 3 -6
v 6 5 -6
v 7 1 -6
v 7 5 -6
v -7 0 -7
v -7 1 -7
v -7 5 -7
v -7 6 -7
v -6 5 -7
v -6 6 -7
v -5 0 -7
v -5 1 -7
v 5 0 -7
v 5 1 -7
v 6 5 -7
v 6 6 -7
v 7 0 -7
v 7 1 -7
v 7 5 -7
v 7 6 -7
v -7 0 5
v -7 1 5
v -7 5 5
v -7 6 5
v -6 5 5
v -6 6 5
v -5 0 5
v -5 1 5
v 5 0 5
v 5 1 5
v 6 5 5
v 6 6 5
v 7 0 5
v 7 1 5
v 7 5 5
v 7 6 5
v -7 1 4
v -7 5 4
v -6 3 4
v -6 5 4
v -5 1 4
v -5 3 4
v 5 1 4
v 5 3 4
v 6 3 4
v 6 5 4
v 7 1 4
v 7 5 4
v -6 8 1
v -6 22 1
v 6 8 1
v 6 22 1
v -7 0 -11
v -7 1 -11
v -7 5 -11
v -7 6 -11
v -6 5 -11
v -6 6 -11
v -5 0 -11
v -5 1 -11
v 5 0 -11
v 5 1 -11
v 6 5 -11
v 6 6 -11
v 7 0 -11
v 7 1 -11
v 7 5 -11
v 7 6 -11
v -7 1 -12
v -7 5 -12
v -6 3 -12
v -6 5 -12
v -5 1 -12
v -5 3 -12
v -3 8 -12
v -3 10 -12
v 3 8 -12
v 3 10 -12
v 5 1 -12
v 5 3 -12
v 6 3 -12
v 6 5 -12
v 7 1 -12
v 7 5 -12
v -6 3 -14
v -6 8 -14
v 6 3 -14
v 6 8 -14
v -7 0 9
v -5 0 9
v 5 0 9
v 7 0 9
v -7 0 5
v -5 0 5
v 5 0 5
v 7 0 5
v -7 0 -7
v -5 0 -7
v 5 0 -7
v 7 0 -7
v -7 0 -11
v -5 0 -11
v 5 0 -11
v 7 0 -11
v -7 1 10
v -5 1 10
v 5 1 10
v 7 1 10
v -7 1 9
v -5 1 9
v 5 1 9
v 7 1 9
v -7 1 5
v -5 1 5
v 5 1 5
v 7 1 5
v -7 1 4
v -5 1 4
v 5 1 4
v 7 1 4
v -7 1 -6
v -5 1 -6
v 5 1 -6
v 7 1 -6
v -7 1 -7
v -5 1 -7
v 5 1 -7
v 7 1 -7
v -7 1 -11
v -5 1 -11
v 5 1 -11
v 7 1 -11
v -7 1 -12
v -5 1 -12
v 5 1 -12
v 7 1 -12
v -6 3 14
v 6 3 14
v -6 3 11
v -5 3 11
v 5 3 11
v 6 3 11
v -6 3 10
v -5 3 10
v 5 3 10
v 6 3 10
v -6 3 4
v -5 3 4
v 5 3 4
v 6 3 4
v -6 3 3
v -5 3 3
v 5 3 3
v 6 3 3
v -6 3 -5
v -5 3 -5
v 5 3 -5
v 6 3 -5
v -6 3 -6
v -5 3 -6
v 5 3 -6
v 6 3 -6
v -6 3 -12
v -5 3 -12
v 5 3 -12
v 6 3 -12
v -6 3 -13
v -5 3 -13
v 5 3 -13
v 6 3 -13
v -6 3 -14
v 6 3 -14
v -7 5 10
v -6 5 10
v 6 5 10
v 7 5 10
v -7 5 9
v -6 5 9
v 6 5 9
v 7 5 9
v -7 5 5
v -6 5 5
v 6 5 5
v 7 5 5
v -7 5 4
v -6 5 4
v 6 5 4
v 7 5 4
v -7 5 -6
v -6 5 -6
v 6 5 -6
v 7 5 -6
v -7 5 -7
v -6 5 -7
v 6 5 -7
v 7 5 -7
v -7 5 -11
v -6 5 -11
v 6 5 -11
v 7 5 -11
v -7 5 -12
v -6 5 -12
v 6 5 -12
v 7 5 -12
v -7 6 9
v -6 6 9
v 6 6 9
v 7 6 9
v -7 6 5
v -6 6 5
v 6 6 5
v 7 6 5
v -7 6 -7
v -6 6 -7
v 6 6 -7
v 7 6 -7
v -7 6 -11
v -6 6 -11
v 6 6 -11
v 7 6 -11
v -6 8 1
v 6 8 1
v -5 8 -0
v 5 8 -0
v -3 8 -6
v 3 8 -6
v -3 8 -12
v 3 8 -12
v -5 8 -13
v 5 8 -13
v -6 8 -14
v 6 8 -14
v -3 10 -6
v 3 10 -6
v -3 10 -12
v 3 10 -12
v -6 22 14
v 6 22 14
v -6 22 1
v 6 22 1

# faces
f 6/6/1 2/6/1 1/6/1
f 7/6/1 2/6/1 6/6/1
f 10/6/1 4/6/1 3/6/1
f 11/6/1 4/6/1 10/6/1
f 13/6/1 8/6/1 7/6/1
f 13/6/1 6/6/1 5/6/1
f 13/6/1 7/6/1 6/6/1
f 14/6/1 8/6/1 13/6/1
f 15/6/1 12/6/1 11/6/1
f 15/6/1 11/6/1 10/6/1
f 15/6/1 10/6/1 9/6/1
f 16/6/1 12/6/1 15/6/1
f 17/3/1 14/3/1 13/3/1
f 17/6/1 13/6/1 5/6/1
f 18/6/1 8/6/1 14/6/1
f 18/3/1 14/3/1 17/3/1
f 19/3/1 16/3/1 15/3/1
f 19/6/1 15/6/1 9/6/1
f 20/6/1 12/6/1 16/6/1
f 20/3/1 16/3/1 19/3/1
f 21/6/1 17/6/1 5/6/1
f 21/6/1 18/6/1 17/6/1
f 22/6/1 18/6/1 21/6/1
f 23/6/1 8/6/1 18/6/1
f 23/6/1 18/6/1 22/6/1
f 24/6/1 8/6/1 23/6/1
f 25/6/1 19/6/1 9/6/1
f 25/6/1 20/6/1 19/6/1
f 26/6/1 20/6/1 25/6/1
f 27/6/1 12/6/1 20/6/1
f 27/6/1 20/6/1 26/6/1
f 28/6/1 12/6/1 27/6/1
f 29/6/1 23/6/1 22/6/1
f 30/6/1 23/6/1 29/6/1
f 31/6/1 27/6/1 26/6/1
f 32/6/1 27/6/1 31/6/1
f 43/6/1 35/6/1 34/6/1
f 46/6/1 37/6/1 36/6/1
f 47/6/1 39/6/1 38/6/1
f 50/6/1 41/6/1 40/6/1
f 51/1/1 34/1/1 33/1/1
f 51/6/1 44/6/1 43/6/1
f 51/6/1 43/6/1 34/6/1
f 52/6/1 44/6/1 51/6/1
f 53/6/1 44/6/1 52/6/1
f 54/6/1 46/6/1 45/6/1
f 55/6/1 37/6/1 46/6/1
f 55/6/1 46/6/1 54/6/1
f 56/1/1 38/1/1 37/1/1
f 56/6/1 37/6/1 55/6/1
f 57/6/1 48/6/1 47/6/1
f 57/1/1 38/1/1 56/1/1
f 57/6/1 47/6/1 38/6/1
f 58/6/1 48/6/1 57/6/1
f 59/6/1 48/6/1 58/6/1
f 60/6/1 50/6/1 49/6/1
f 61/6/1 41/6/1 50/6/1
f 61/6/1 50/6/1 60/6/1
f 62/1/1 42/1/1 41/1/1
f 62/6/1 41/6/1 61/6/1
f 63/6/1 55/6/1 54/6/1
f 63/6/1 53/6/1 52/6/1
f 63/6/1 54/6/1 53/6/1
f 63/1/1 52/1/1 51/1/1
f 64/1/1 56/1/1 55/1/1
f 64/6/1 55/6/1 63/6/1
f 64/1/1 58/1/1 57/1/1
f 64/1/1 57/1/1 56/1/1
f 65/6/1 59/6/1 58/6/1
f 65/1/1 58/1/1 64/1/1
f 65/6/1 61/6/1 60/6/1
f 65/6/1 60/6/1 59/6/1
f 66/1/1 62/1/1 61/1/1
f 66/6/1 61/6/1 65/6/1
f 67/1/1 64/1/1 63/1/1
f 67/1/1 65/1/1 64/1/1
f 67/1/1 66/1/1 65/1/1
f 68/1/1 62/1/1 66/1/1
f 68/1/1 66/1/1 67/1/1
f 68/1/1 42/1/1 62/1/1
f 69/1/1 67/1/1 63/1/1
f 69/1/1 51/1/1 33/1/1
f 69/1/1 63/1/1 51/1/1
f 70/1/1 67/1/1 69/1/1
f 71/4/1 70/4/1 69/4/1
f 71/1/1 67/1/1 70/1/1
f 72/1/1 67/1/1 71/1/1
f 73/4/1 72/4/1 71/4/1
f 73/1/1 67/1/1 72/1/1
f 74/1/1 67/1/1 73/1/1
f 75/4/1 74/4/1 73/4/1
f 75/1/1 67/1/1 74/1/1
f 76/1/1 67/1/1 75/1/1
f 77/1/1 69/1/1 33/1/1
f 77/4/1 71/4/1 69/4/1
f 77/4/1 76/4/1 75/4/1
f 77/4/1 75/4/1 73/4/1
f 77/4/1 73/4/1 71/4/1
f 78/1/1 67/1/1 76/1/1
f 78/4/1 76/4/1 77/4/1
f 79/1/1 77/1/1 33/1/1
f 79/1/1 78/1/1 77/1/1
f 80/1/1 67/1/1 78/1/1
f 80/1/1 78/1/1 79/1/1
f 83/5/1 82/5/1 81/5/1
f 84/5/1 82/5/1 83/5/1
f 90/6/1 86/6/1 85/6/1
f 91/6/1 86/6/1 90/6/1
f 94/6/1 88/6/1 87/6/1
f 95/6/1 88/6/1 94/6/1
f 97/6/1 92/6/1 91/6/1
f 97/6/1 90/6/1 89/6/1
f 97/6/1 91/6/1 90/6/1
f 98/6/1 92/6/1 97/6/1
f 99/6/1 96/6/1 95/6/1
f 99/6/1 95/6/1 94/6/1
f 99/6/1 94/6/1 93/6/1
f 100/6/1 96/6/1 99/6/1
f 101/6/2 102/6/2 106/6/2
f 106/6/2 102/6/2 107/6/2
f 103/6/2 104/6/2 110/6/2
f 110/6/2 104/6/2 111/6/2
f 107/6/2 108/6/2 113/6/2
f 105/6/2 106/6/2 113/6/2
f 106/6/2 107/6/2 113/6/2
f 113/6/2 108/6/2 114/6/2
f 111/6/2 112/6/2 115/6/2
f 110/6/2 111/6/2 115/6/2
f 109/6/2 110/6/2 115/6/2
f 115/6/2 112/6/2 116/6/2
f 117/5/2 118/5/2 119/5/2
f 119/5/2 118/5/2 120/5/2
f 122/6/2 123/6/2 131/6/2
f 124/6/2 125/6/2 134/6/2
f 126/6/2 127/6/2 135/6/2
f 128/6/2 129/6/2 138/6/2
f 121/1/2 122/1/2 139/1/2
f 131/6/2 132/6/2 139/6/2
f 122/6/2 131/6/2 139/6/2
f 139/6/2 132/6/2 140/6/2
f 140/6/2 132/6/2 141/6/2
f 133/6/2 134/6/2 142/6/2
f 134/6/2 125/6/2 143/6/2
f 142/6/2 134/6/2 143/6/2
f 125/1/2 126/1/2 144/1/2
f 143/6/2 125/6/2 144/6/2
f 135/6/2 136/6/2 145/6/2
f 144/1/2 126/1/2 145/1/2
f 126/6/2 135/6/2 145/6/2
f 145/6/2 136/6/2 146/6/2
f 146/6/2 136/6/2 147/6/2
f 137/6/2 138/6/2 148/6/2
f 138/6/2 129/6/2 149/6/2
f 148/6/2 138/6/2 149/6/2
f 129/1/2 130/1/2 150/1/2
f 149/6/2 129/6/2 150/6/2
f 142/6/2 143/6/2 151/6/2
f 140/6/2 141/6/2 151/6/2
f 141/6/2 142/6/2 151/6/2
f 139/1/2 140/1/2 151/1/2
f 143/1/2 144/1/2 152/1/2
f 151/6/2 143/6/2 152/6/2
f 145/1/2 146/1/2 152/1/2
f 144/1/2 145/1/2 152/1/2
f 146/6/2 147/6/2 153/6/2
f 152/1/2 146/1/2 153/1/2
f 148/6/2 149/6/2 153/6/2
f 147/6/2 148/6/2 153/6/2
f 149/1/2 150/1/2 154/1/2
f 153/6/2 149/6/2 154/6/2
f 151/1/2 152/1/2 155/1/2
f 152/1/2 153/1/2 155/1/2
f 153/1/2 154/1/2 155/1/2
f 154/1/2 150/1/2 156/1/2
f 155/1/2 154/1/2 156/1/2
f 150/1/2 130/1/2 156/1/2
f 151/1/2 155/1/2 157/1/2
f 121/1/2 139/1/2 157/1/2
f 139/1/2 151/1/2 157/1/2
f 157/1/2 155/1/2 158/1/2
f 157/4/2 158/4/2 159/4/2
f 158/1/2 155/1/2 159/1/2
f 159/1/2 155/1/2 160/1/2
f 159/4/2 160/4/2 161/4/2
f 160/1/2 155/1/2 161/1/2
f 161/1/2 155/1/2 162/1/2
f 161/4/2 162/4/2 163/4/2
f 162/1/2 155/1/2 163/1/2
f 163/1/2 155/1/2 164/1/2
f 121/1/2 157/1/2 165/1/2
f 157/4/2 159/4/2 165/4/2
f 163/4/2 164/4/2 165/4/2
f 161/4/2 163/4/2 165/4/2
f 159/4/2 161/4/2 165/4/2
f 164/1/2 155/1/2 166/1/2
f 165/4/2 164/4/2 166/4/2
f 121/1/2 165/1/2 167/1/2
f 165/1/2 166/1/2 167/1/2
f 166/1/2 155/1/2 168/1/2
f 167/1/2 166/1/2 168/1/2
f 169/6/2 170/6/2 174/6/2
f 174/6/2 170/6/2 175/6/2
f 171/6/2 172/6/2 178/6/2
f 178/6/2 172/6/2 179/6/2
f 175/6/2 176/6/2 181/6/2
f 173/6/2 174/6/2 181/6/2
f 174/6/2 175/6/2 181/6/2
f 181/6/2 176/6/2 182/6/2
f 179/6/2 180/6/2 183/6/2
f 178/6/2 179/6/2 183/6/2
f 177/6/2 178/6/2 183/6/2
f 183/6/2 180/6/2 184/6/2
f 181/3/2 182/3/2 185/3/2
f 173/6/2 181/6/2 185/6/2
f 182/6/2 176/6/2 186/6/2
f 185/3/2 182/3/2 186/3/2
f 183/3/2 184/3/2 187/3/2
f 177/6/2 183/6/2 187/6/2
f 184/6/2 180/6/2 188/6/2
f 187/3/2 184/3/2 188/3/2
f 173/6/2 185/6/2 189/6/2
f 185/6/2 186/6/2 189/6/2
f 189/6/2 186/6/2 190/6/2
f 186/6/2 176/6/2 191/6/2
f 190/6/2 186/6/2 191/6/2
f 191/6/2 176/6/2 192/6/2
f 177/6/2 187/6/2 193/6/2
f 187/6/2 188/6/2 193/6/2
f 193/6/2 188/6/2 194/6/2
f 188/6/2 180/6/2 195/6/2
f 194/6/2 188/6/2 195/6/2
f 195/6/2 180/6/2 196/6/2
f 190/6/2 191/6/2 197/6/2
f 197/6/2 191/6/2 198/6/2
f 194/6/2 195/6/2 199/6/2
f 199/6/2 195/6/2 200/6/2
f 203/1/3 202/1/3 201/1/3
f 204/1/3 202/1/3 203/1/3
f 205/1/3 202/1/3 204/1/3
f 206/1/3 202/1/3 205/1/3
f 207/1/3 203/1/3 201/1/3
f 207/2/3 204/2/3 203/2/3
f 208/1/3 205/1/3 204/1/3
f 208/2/3 204/2/3 207/2/3
f 209/1/3 207/1/3 201/1/3
f 209/1/3 208/1/3 207/1/3
f 210/1/3 205/1/3 208/1/3
f 210/1/3 208/1/3 209/1/3
f 211/1/3 209/1/3 201/1/3
f 211/2/3 210/2/3 209/2/3
f 212/1/3 205/1/3 210/1/3
f 212/2/3 210/2/3 211/2/3
f 213/4/3 206/4/3 205/4/3
f 213/1/3 205/1/3 212/1/3
f 214/1/3 202/1/3 206/1/3
f 214/4/3 206/4/3 213/4/3
f 215/1/3 213/1/3 212/1/3
f 215/1/3 212/1/3 211/1/3
f 215/1/3 214/1/3 213/1/3
f 215/1/3 211/1/3 201/1/3
f 216/1/3 202/1/3 214/1/3
f 216/1/3 214/1/3 215/1/3
f 219/6/3 218/6/3 217/6/3
f 220/6/3 218/6/3 219/6/3
f 221/6/3 219/6/3 217/6/3
f 222/6/3 219/6/3 221/6/3
f 225/6/3 224/6/3 223/6/3
f 227/6/3 225/6/3 223/6/3
f 227/6/3 226/6/3 225/6/3
f 228/6/3 226/6/3 227/6/3
f 233/6/3 232/6/3 231/6/3
f 234/6/3 232/6/3 233/6/3
f 235/6/3 230/6/3 229/6/3
f 236/6/3 230/6/3 235/6/3
f 241/6/3 238/6/3 237/6/3
f 242/6/3 238/6/3 241/6/3
f 243/6/3 240/6/3 239/6/3
f 244/6/3 240/6/3 243/6/3
f 247/6/3 246/6/3 245/6/3
f 248/6/3 246/6/3 247/6/3
f 249/6/3 247/6/3 245/6/3
f 250/6/3 247/6/3 249/6/3
f 253/5/3 252/5/3 251/5/3
f 254/5/3 252/5/3 253/5/3
f 257/6/3 256/6/3 255/6/3
f 259/6/3 257/6/3 255/6/3
f 259/6/3 258/6/3 257/6/3
f 260/6/3 258/6/3 259/6/3
f 265/6/3 264/6/3 263/6/3
f 266/6/3 264/6/3 265/6/3
f 267/6/3 262/6/3 261/6/3
f 268/6/3 262/6/3 267/6/3
f 273/6/3 270/6/3 269/6/3
f 274/6/3 270/6/3 273/6/3
f 275/6/3 272/6/3 271/6/3
f 276/6/3 272/6/3 275/6/3
f 279/6/4 280/6/4 281/6/4
f 281/6/4 280/6/4 282/6/4
f 277/6/4 278/6/4 283/6/4
f 283/6/4 278/6/4 284/6/4
f 285/6/4 286/6/4 289/6/4
f 289/6/4 286/6/4 290/6/4
f 287/6/4 288/6/4 291/6/4
f 291/6/4 288/6/4 292/6/4
f 293/6/4 294/6/4 295/6/4
f 295/6/4 294/6/4 296/6/4
f 293/6/4 295/6/4 297/6/4
f 297/6/4 295/6/4 298/6/4
f 299/6/4 300/6/4 301/6/4
f 299/6/4 301/6/4 303/6/4
f 301/6/4 302/6/4 303/6/4
f 303/6/4 302/6/4 304/6/4
f 305/1/4 306/1/4 307/1/4
f 307/1/4 306/1/4 308/1/4
f 311/6/4 312/6/4 313/6/4
f 313/6/4 312/6/4 314/6/4
f 309/6/4 310/6/4 315/6/4
f 315/6/4 310/6/4 316/6/4
f 317/6/4 318/6/4 321/6/4
f 321/6/4 318/6/4 322/6/4
f 319/6/4 320/6/4 323/6/4
f 323/6/4 320/6/4 324/6/4
f 325/6/4 326/6/4 327/6/4
f 327/6/4 326/6/4 328/6/4
f 325/6/4 327/6/4 329/6/4
f 329/6/4 327/6/4 330/6/4
f 331/5/4 332/5/4 333/5/4
f 333/5/4 332/5/4 334/5/4
f 335/6/4 336/6/4 337/6/4
f 335/6/4 337/6/4 339/6/4
f 337/6/4 338/6/4 339/6/4
f 339/6/4 338/6/4 340/6/4
f 341/1/4 342/1/4 343/1/4
f 343/1/4 342/1/4 344/1/4
f 349/6/5 346/6/5 345/6/5
f 350/6/5 346/6/5 349/6/5
f 351/6/5 348/6/5 347/6/5
f 352/6/5 348/6/5 351/6/5
f 357/6/5 354/6/5 353/6/5
f 358/6/5 354/6/5 357/6/5
f 359/6/5 356/6/5 355/6/5
f 360/6/5 356/6/5 359/6/5
f 365/6/5 362/6/5 361/6/5
f 366/6/5 362/6/5 365/6/5
f 367/6/5 364/6/5 363/6/5
f 368/6/5 364/6/5 367/6/5
f 373/6/5 370/6/5 369/6/5
f 374/6/5 370/6/5 373/6/5
f 375/6/5 372/6/5 371/6/5
f 376/6/5 372/6/5 375/6/5
f 381/6/5 378/6/5 377/6/5
f 382/6/5 378/6/5 381/6/5
f 383/6/5 380/6/5 379/6/5
f 384/6/5 380/6/5 383/6/5
f 389/6/5 386/6/5 385/6/5
f 390/6/5 386/6/5 389/6/5
f 391/6/5 388/6/5 387/6/5
f 392/6/5 388/6/5 391/6/5
f 395/1/5 394/1/5 393/1/5
f 396/1/5 394/1/5 395/1/5
f 397/1/5 394/1/5 396/1/5
f 398/1/5 394/1/5 397/1/5
f 399/6/5 396/6/5 395/6/5
f 400/1/5 397/1/5 396/1/5
f 400/6/5 396/6/5 399/6/5
f 401/6/5 398/6/5 397/6/5
f 401/1/5 397/1/5 400/1/5
f 402/6/5 398/6/5 401/6/5
f 404/1/5 401/1/5 400/1/5
f 405/1/5 401/1/5 404/1/5
f 407/6/5 404/6/5 403/6/5
f 408/1/5 405/1/5 404/1/5
f 408/6/5 404/6/5 407/6/5
f 409/6/5 406/6/5 405/6/5
f 409/1/5 405/1/5 408/1/5
f 410/6/5 406/6/5 409/6/5
f 411/1/5 408/1/5 407/1/5
f 411/1/5 409/1/5 408/1/5
f 411/1/5 410/1/5 409/1/5
f 412/1/5 410/1/5 411/1/5
f 413/1/5 410/1/5 412/1/5
f 414/1/5 410/1/5 413/1/5
f 415/6/5 412/6/5 411/6/5
f 416/1/5 413/1/5 412/1/5
f 416/6/5 412/6/5 415/6/5
f 417/6/5 414/6/5 413/6/5
f 417/1/5 413/1/5 416/1/5
f 418/6/5 414/6/5 417/6/5
f 420/1/5 417/1/5 416/1/5
f 421/1/5 417/1/5 420/1/5
f 423/6/5 420/6/5 419/6/5
f 424/1/5 421/1/5 420/1/5
f 424/6/5 420/6/5 423/6/5
f 425/6/5 422/6/5 421/6/5
f 425/1/5 421/1/5 424/1/5
f 426/6/5 422/6/5 425/6/5
f 427/1/5 424/1/5 423/1/5
f 427/1/5 425/1/5 424/1/5
f 427/1/5 426/1/5 425/1/5
f 428/1/5 426/1/5 427/1/5
f 429/6/6 430/6/6 433/6/6
f 433/6/6 430/6/6 434/6/6
f 431/6/6 432/6/6 435/6/6
f 435/6/6 432/6/6 436/6/6
f 437/6/6 438/6/6 441/6/6
f 441/6/6 438/6/6 442/6/6
f 439/6/6 440/6/6 443/6/6
f 443/6/6 440/6/6 444/6/6
f 445/6/6 446/6/6 449/6/6
f 449/6/6 446/6/6 450/6/6
f 447/6/6 448/6/6 451/6/6
f 451/6/6 448/6/6 452/6/6
f 453/6/6 454/6/6 457/6/6
f 457/6/6 454/6/6 458/6/6
f 455/6/6 456/6/6 459/6/6
f 459/6/6 456/6/6 460/6/6
f 461/6/6 462/6/6 465/6/6
f 465/6/6 462/6/6 466/6/6
f 463/6/6 464/6/6 467/6/6
f 467/6/6 464/6/6 468/6/6
f 469/6/6 470/6/6 473/6/6
f 473/6/6 470/6/6 474/6/6
f 471/6/6 472/6/6 475/6/6
f 475/6/6 472/6/6 476/6/6
f 477/1/6 478/1/6 479/1/6
f 479/1/6 478/1/6 480/1/6
f 479/6/6 480/6/6 481/6/6
f 481/6/6 480/6/6 482/6/6
f 479/6/6 481/6/6 483/6/6
f 482/6/6 480/6/6 484/6/6
f 477/1/6 479/1/6 485/1/6
f 483/6/6 484/6/6 485/6/6
f 479/6/6 483/6/6 485/6/6
f 484/6/6 480/6/6 486/6/6
f 485/6/6 484/6/6 486/6/6
f 480/1/6 478/1/6 486/1/6
f 477/1/6 485/1/6 487/1/6
f 485/1/6 486/1/6 487/1/6
f 486/1/6 478/1/6 488/1/6
f 487/1/6 486/1/6 488/1/6
f 489/5/6 490/5/6 491/5/6
f 491/5/6 490/5/6 492/5/6
f 493/1/6 494/1/6 495/1/6
f 495/1/6 494/1/6 496/1/6
