# MagicaVoxel @ Ephtracy

# group
g truckcab_black

# material
mtllib truckcab_black.mtl
usemtl palette

# normals
vn -1 0 0
vn 1 0 0
vn 0 0 1
vn 0 0 -1
vn 0 -1 0
vn 0 1 0

# texcoords
vt 0.958984 0.5
vt 0.974609 0.5
vt 0.978516 0.5
vt 0.982422 0.5
vt 0.990234 0.5
vt 0.994141 0.5

# verts
v -7 0 9
v -7 0 5
v -7 0 -7
v -7 0 -11
v -7 1 10
v -7 1 9
v -7 1 5
v -7 1 4
v -7 1 -6
v -7 1 -7
v -7 1 -11
v -7 1 -12
v -7 2 8
v -7 2 6
v -7 2 -8
v -7 2 -10
v -7 4 8
v -7 4 6
v -7 4 -8
v -7 4 -10
v -7 5 10
v -7 5 9
v -7 5 5
v -7 5 4
v -7 5 -6
v -7 5 -7
v -7 5 -11
v -7 5 -12
v -7 6 9
v -7 6 5
v -7 6 -7
v -7 6 -11
v -6 3 14
v -6 3 11
v -6 3 10
v -6 3 4
v -6 3 3
v -6 3 -5
v -6 3 -6
v -6 3 -12
v -6 3 -13
v -6 3 -14
v -6 5 10
v -6 5 9
v -6 5 5
v -6 5 4
v -6 5 -6
v -6 5 -7
v -6 5 -11
v -6 5 -12
v -6 6 11
v -6 6 10
v -6 6 9
v -6 6 5
v -6 6 4
v -6 6 3
v -6 6 -5
v -6 6 -6
v -6 6 -7
v -6 6 -11
v -6 6 -12
v -6 6 -13
v -6 7 10
v -6 7 4
v -6 7 -6
v -6 7 -12
v -6 8 1
v -6 8 -14
v -6 13 13
v -6 13 11
v -6 14 11
v -6 14 9
v -6 15 9
v -6 15 7
v -6 16 7
v -6 16 6
v -6 21 13
v -6 21 6
v -6 22 14
v -6 22 1
v -3 8 -6
v -3 8 -12
v -3 10 -6
v -3 10 -12
v 5 0 9
v 5 0 5
v 5 0 -7
v 5 0 -11
v 5 1 10
v 5 1 9
v 5 1 5
v 5 1 4
v 5 1 -6
v 5 1 -7
v 5 1 -11
v 5 1 -12
v 5 3 10
v 5 3 4
v 5 3 -6
v 5 3 -12
v -5 0 9
v -5 0 5
v -5 0 -7
v -5 0 -11
v -5 1 10
v -5 1 9
v -5 1 5
v -5 1 4
v -5 1 -6
v -5 1 -7
v -5 1 -11
v -5 1 -12
v -5 3 10
v -5 3 4
v -5 3 -6
v -5 3 -12
v 3 8 -6
v 3 8 -12
v 3 10 -6
v 3 10 -12
v 6 3 14
v 6 3 11
v 6 3 10
v 6 3 4
v 6 3 3
v 6 3 -5
v 6 3 -6
v 6 3 -12
v 6 3 -13
v 6 3 -14
v 6 5 10
v 6 5 9
v 6 5 5
v 6 5 4
v 6 5 -6
v 6 5 -7
v 6 5 -11
v 6 5 -12
v 6 6 11
v 6 6 10
v 6 6 9
v 6 6 5
v 6 6 4
v 6 6 3
v 6 6 -5
v 6 6 -6
v 6 6 -7
v 6 6 -11
v 6 6 -12
v 6 6 -13
v 6 7 10
v 6 7 4
v 6 7 -6
v 6 7 -12
v 6 8 1
v 6 8 -14
v 6 13 13
v 6 13 11
v 6 14 11
v 6 14 9
v 6 15 9
v 6 15 7
v 6 16 7
v 6 16 6
v 6 21 13
v 6 21 6
v 6 22 14
v 6 22 1
v 7 0 9
v 7 0 5
v 7 0 -7
v 7 0 -11
v 7 1 10
v 7 1 9
v 7 1 5
v 7 1 4
v 7 1 -6
v 7 1 -7
v 7 1 -11
v 7 1 -12
v 7 2 8
v 7 2 6
v 7 2 -8
v 7 2 -10
v 7 4 8
v 7 4 6
v 7 4 -8
v 7 4 -10
v 7 5 10
v 7 5 9
v 7 5 5
v 7 5 4
v 7 5 -6
v 7 5 -7
v 7 5 -11
v 7 5 -12
v 7 6 9
v 7 6 5
v 7 6 -7
v 7 6 -11
v -6 3 14
v -6 22 14
v -5 5 14
v -5 7 14
v -5 13 14
v -5 21 14
v -2 5 14
v -2 7 14
v 2 5 14
v 2 7 14
v 5 5 14
v 5 7 14
v 5 13 14
v 5 21 14
v 6 3 14
v 6 22 14
v -7 1 10
v -7 5 10
v -6 3 10
v -6 5 10
v -5 1 10
v -5 3 10
v 5 1 10
v 5 3 10
v 6 3 10
v 6 5 10
v 7 1 10
v 7 5 10
v -7 0 9
v -7 1 9
v -7 5 9
v -7 6 9
v -6 5 9
v -6 6 9
v -5 0 9
v -5 1 9
v 5 0 9
v 5 1 9
v 6 5 9
v 6 6 9
v 7 0 9
v 7 1 9
v 7 5 9
v 7 6 9
v -7 1 -6
v -7 5 -6
v -6 3 -6
v -6 5 -6
v -5 1 -6
v -5 3 -6
v -3 8 -6
v -3 10 -6
v 3 8 -6
v 3 10 -6
v 5 1 -6
v 5 3 -6
v 6 3 -6
v 6 5 -6
v 7 1 -6
v 7 5 -6
v -7 0 -7
v -7 1 -7
v -7 5 -7
v -7 6 -7
v -6 5 -7
v -6 6 -7
v -5 0 -7
v -5 1 -7
v 5 0 -7
v 5 1 -7
v 6 5 -7
v 6 6 -7
v 7 0 -7
v 7 1 -7
v 7 5 -7
v 7 6 -7
v -7 0 5
v -7 1 5
v -7 5 5
v -7 6 5
v -6 5 5
v -6 6 5
v -5 0 5
v -5 1 5
v 5 0 5
v 5 1 5
v 6 5 5
v 6 6 5
v 7 0 5
v 7 1 5
v 7 5 5
v 7 6 5
v -7 1 4
v -7 5 4
v -6 3 4
v -6 5 4
v -5 1 4
v -5 3 4
v 5 1 4
v 5 3 4
v 6 3 4
v 6 5 4
v 7 1 4
v 7 5 4
v -6 8 1
v -6 22 1
v 6 8 1
v 6 22 1
v -7 0 -11
v -7 1 -11
v -7 5 -11
v -7 6 -11
v -6 5 -11
v -6 6 -11
v -5 0 -11
v -5 1 -11
v 5 0 -11
v 5 1 -11
v 6 5 -11
v 6 6 -11
v 7 0 -11
v 7 1 -11
v 7 5 -11
v 7 6 -11
v -7 1 -12
v -7 5 -12
v -6 3 -12
v -6 5 -12
v -5 1 -12
v -5 3 -12
v -3 8 -12
v -3 10 -12
v 3 8 -12
v 3 10 -12
v 5 1 -12
v 5 3 -12
v 6 3 -12
v 6 5 -12
v 7 1 -12
v 7 5 -12
v -6 3 -14
v -6 8 -14
v 6 3 -14
v 6 8 -14
v -7 0 9
v -5 0 9
v 5 0 9
v 7 0 9
v -7 0 5
v -5 0 5
v 5 0 5
v 7 0 5
v -7 0 -7
v -5 0 -7
v 5 0 -7
v 7 0 -7
v -7 0 -11
v -5 0 -11
v 5 0 -11
v 7 0 -11
v -7 1 10
v -5 1 10
v 5 1 10
v 7 1 10
v -7 1 9
v -5 1 9
v 5 1 9
v 7 1 9
v -7 1 5
v -5 1 5
v 5 1 5
v 7 1 5
v -7 1 4
v -5 1 4
v 5 1 4
v 7 1 4
v -7 1 -6
v -5 1 -6
v 5 1 -6
v 7 1 -6
v -7 1 -7
v -5 1 -7
v 5 1 -7
v 7 1 -7
v -7 1 -11
v -5 1 -11
v 5 1 -11
v 7 1 -11
v -7 1 -12
v -5 1 -12
v 5 1 -12
v 7 1 -12
v -6 3 14
v 6 3 14
v -6 3 11
v -5 3 11
v 5 3 11
v 6 3 11
v -6 3 10
v -5 3 10
v 5 3 10
v 6 3 10
v -6 3 4
v -5 3 4
v 5 3 4
v 6 3 4
v -6 3 3
v -5 3 3
v 5 3 3
v 6 3 3
v -6 3 -5
v -5 3 -5
v 5 3 -5
v 6 3 -5
v -6 3 -6
v -5 3 -6
v 5 3 -6
v 6 3 -6
v -6 3 -12
v -5 3 -12
v 5 3 -12
v 6 3 -12
v -6 3 -13
v -5 3 -13
v 5 3 -13
v 6 3 -13
v -6 3 -14
v 6 3 -14
v -7 5 10
v -6 5 10
v 6 5 10
v 7 5 10
v -7 5 9
v -6 5 9
v 6 5 9
v 7 5 9
v -7 5 5
v -6 5 5
v 6 5 5
v 7 5 5
v -7 5 4
v -6 5 4
v 6 5 4
v 7 5 4
v -7 5 -6
v -6 5 -6
v 6 5 -6
v 7 5 -6
v -7 5 -7
v -6 5 -7
v 6 5 -7
v 7 5 -7
v -7 5 -11
v -6 5 -11
v 6 5 -11
v 7 5 -11
v -7 5 -12
v -6 5 -12
v 6 5 -12
v 7 5 -12
v -7 6 9
v -6 6 9
v 6 6 9
v 7 6 9
v -7 6 5
v -6 6 5
v 6 6 5
v 7 6 5
v -7 6 -7
v -6 6 -7
v 6 6 -7
v 7 6 -7
v -7 6 -11
v -6 6 -11
v 6 6 -11
v 7 6 -11
v -6 8 1
v 6 8 1
v -5 8 -0
v 5 8 -0
v -3 8 -6
v 3 8 -6
v -3 8 -12
v 3 8 -12
v -5 8 -13
v 5 8 -13
v -6 8 -14
v 6 8 -14
v -3 10 -6
v 3 10 -6
v -3 10 -12
v 3 10 -12
v -6 22 14
v 6 22 14
v -6 22 1
v 6 22 1

# faces
f 6/5/1 2/5/1 1/5/1
f 7/5/1 2/5/1 6/5/1
f 10/5/1 4/5/1 3/5/1
f 11/5/1 4/5/1 10/5/1
f 13/5/1 8/5/1 7/5/1
f 13/5/1 6/5/1 5/5/1
f 13/5/1 7/5/1 6/5/1
f 14/5/1 8/5/1 13/5/1
f 15/5/1 12/5/1 11/5/1
f 15/5/1 11/5/1 10/5/1
f 15/5/1 10/5/1 9/5/1
f 16/5/1 12/5/1 15/5/1
f 17/2/1 14/2/1 13/2/1
f 17/5/1 13/5/1 5/5/1
f 18/5/1 8/5/1 14/5/1
f 18/2/1 14/2/1 17/2/1
f 19/2/1 16/2/1 15/2/1
f 19/5/1 15/5/1 9/5/1
f 20/5/1 12/5/1 16/5/1
f 20/2/1 16/2/1 19/2/1
f 21/5/1 17/5/1 5/5/1
f 21/5/1 18/5/1 17/5/1
f 22/5/1 18/5/1 21/5/1
f 23/5/1 8/5/1 18/5/1
f 23/5/1 18/5/1 22/5/1
f 24/5/1 8/5/1 23/5/1
f 25/5/1 19/5/1 9/5/1
f 25/5/1 20/5/1 19/5/1
f 26/5/1 20/5/1 25/5/1
f 27/5/1 12/5/1 20/5/1
f 27/5/1 20/5/1 26/5/1
f 28/5/1 12/5/1 27/5/1
f 29/5/1 23/5/1 22/5/1
f 30/5/1 23/5/1 29/5/1
f 31/5/1 27/5/1 26/5/1
f 32/5/1 27/5/1 31/5/1
f 43/5/1 35/5/1 34/5/1
f 46/5/1 37/5/1 36/5/1
f 47/5/1 39/5/1 38/5/1
f 50/5/1 41/5/1 40/5/1
f 51/6/1 34/6/1 33/6/1
f 51/5/1 44/5/1 43/5/1
f 51/5/1 43/5/1 34/5/1
f 52/5/1 44/5/1 51/5/1
f 53/5/1 44/5/1 52/5/1
f 54/5/1 46/5/1 45/5/1
f 55/5/1 37/5/1 46/5/1
f 55/5/1 46/5/1 54/5/1
f 56/6/1 38/6/1 37/6/1
f 56/5/1 37/5/1 55/5/1
f 57/5/1 48/5/1 47/5/1
f 57/6/1 38/6/1 56/6/1
f 57/5/1 47/5/1 38/5/1
f 58/5/1 48/5/1 57/5/1
f 59/5/1 48/5/1 58/5/1
f 60/5/1 50/5/1 49/5/1
f 61/5/1 41/5/1 50/5/1
f 61/5/1 50/5/1 60/5/1
f 62/6/1 42/6/1 41/6/1
f 62/5/1 41/5/1 61/5/1
f 63/5/1 55/5/1 54/5/1
f 63/5/1 53/5/1 52/5/1
f 63/5/1 54/5/1 53/5/1
f 63/6/1 52/6/1 51/6/1
f 64/6/1 56/6/1 55/6/1
f 64/5/1 55/5/1 63/5/1
f 64/6/1 58/6/1 57/6/1
f 64/6/1 57/6/1 56/6/1
f 65/5/1 59/5/1 58/5/1
f 65/6/1 58/6/1 64/6/1
f 65/5/1 61/5/1 60/5/1
f 65/5/1 60/5/1 59/5/1
f 66/6/1 62/6/1 61/6/1
f 66/5/1 61/5/1 65/5/1
f 67/6/1 64/6/1 63/6/1
f 67/6/1 65/6/1 64/6/1
f 67/6/1 66/6/1 65/6/1
f 68/6/1 62/6/1 66/6/1
f 68/6/1 66/6/1 67/6/1
f 68/6/1 42/6/1 62/6/1
f 69/6/1 67/6/1 63/6/1
f 69/6/1 51/6/1 33/6/1
f 69/6/1 63/6/1 51/6/1
f 70/6/1 67/6/1 69/6/1
f 71/3/1 70/3/1 69/3/1
f 71/6/1 67/6/1 70/6/1
f 72/6/1 67/6/1 71/6/1
f 73/3/1 72/3/1 71/3/1
f 73/6/1 67/6/1 72/6/1
f 74/6/1 67/6/1 73/6/1
f 75/3/1 74/3/1 73/3/1
f 75/6/1 67/6/1 74/6/1
f 76/6/1 67/6/1 75/6/1
f 77/6/1 69/6/1 33/6/1
f 77/3/1 71/3/1 69/3/1
f 77/3/1 76/3/1 75/3/1
f 77/3/1 75/3/1 73/3/1
f 77/3/1 73/3/1 71/3/1
f 78/6/1 67/6/1 76/6/1
f 78/3/1 76/3/1 77/3/1
f 79/6/1 77/6/1 33/6/1
f 79/6/1 78/6/1 77/6/1
f 80/6/1 67/6/1 78/6/1
f 80/6/1 78/6/1 79/6/1
f 83/4/1 82/4/1 81/4/1
f 84/4/1 82/4/1 83/4/1
f 90/5/1 86/5/1 85/5/1
f 91/5/1 86/5/1 90/5/1
f 94/5/1 88/5/1 87/5/1
f 95/5/1 88/5/1 94/5/1
f 97/5/1 92/5/1 91/5/1
f 97/5/1 90/5/1 89/5/1
f 97/5/1 91/5/1 90/5/1
f 98/5/1 92/5/1 97/5/1
f 99/5/1 96/5/1 95/5/1
f 99/5/1 95/5/1 94/5/1
f 99/5/1 94/5/1 93/5/1
f 100/5/1 96/5/1 99/5/1
f 101/5/2 102/5/2 106/5/2
f 106/5/2 102/5/2 107/5/2
f 103/5/2 104/5/2 110/5/2
f 110/5/2 104/5/2 111/5/2
f 107/5/2 108/5/2 113/5/2
f 105/5/2 106/5/2 113/5/2
f 106/5/2 107/5/2 113/5/2
f 113/5/2 108/5/2 114/5/2
f 111/5/2 112/5/2 115/5/2
f 110/5/2 111/5/2 115/5/2
f 109/5/2 110/5/2 115/5/2
f 115/5/2 112/5/2 116/5/2
f 117/4/2 118/4/2 119/4/2
f 119/4/2 118/4/2 120/4/2
f 122/5/2 123/5/2 131/5/2
f 124/5/2 125/5/2 134/5/2
f 126/5/2 127/5/2 135/5/2
f 128/5/2 129/5/2 138/5/2
f 121/6/2 122/6/2 139/6/2
f 131/5/2 132/5/2 139/5/2
f 122/5/2 131/5/2 139/5/2
f 139/5/2 132/5/2 140/5/2
f 140/5/2 132/5/2 141/5/2
f 133/5/2 134/5/2 142/5/2
f 134/5/2 125/5/2 143/5/2
f 142/5/2 134/5/2 143/5/2
f 125/6/2 126/6/2 144/6/2
f 143/5/2 125/5/2 144/5/2
f 135/5/2 136/5/2 145/5/2
f 144/6/2 126/6/2 145/6/2
f 126/5/2 135/5/2 145/5/2
f 145/5/2 136/5/2 146/5/2
f 146/5/2 136/5/2 147/5/2
f 137/5/2 138/5/2 148/5/2
f 138/5/2 129/5/2 149/5/2
f 148/5/2 138/5/2 149/5/2
f 129/6/2 130/6/2 150/6/2
f 149/5/2 129/5/2 150/5/2
f 142/5/2 143/5/2 151/5/2
f 140/5/2 141/5/2 151/5/2
f 141/5/2 142/5/2 151/5/2
f 139/6/2 140/6/2 151/6/2
f 143/6/2 144/6/2 152/6/2
f 151/5/2 143/5/2 152/5/2
f 145/6/2 146/6/2 152/6/2
f 144/6/2 145/6/2 152/6/2
f 146/5/2 147/5/2 153/5/2
f 152/6/2 146/6/2 153/6/2
f 148/5/2 149/5/2 153/5/2
f 147/5/2 148/5/2 153/5/2
f 149/6/2 150/6/2 154/6/2
f 153/5/2 149/5/2 154/5/2
f 151/6/2 152/6/2 155/6/2
f 152/6/2 153/6/2 155/6/2
f 153/6/2 154/6/2 155/6/2
f 154/6/2 150/6/2 156/6/2
f 155/6/2 154/6/2 156/6/2
f 150/6/2 130/6/2 156/6/2
f 151/6/2 155/6/2 157/6/2
f 121/6/2 139/6/2 157/6/2
f 139/6/2 151/6/2 157/6/2
f 157/6/2 155/6/2 158/6/2
f 157/3/2 158/3/2 159/3/2
f 158/6/2 155/6/2 159/6/2
f 159/6/2 155/6/2 160/6/2
f 159/3/2 160/3/2 161/3/2
f 160/6/2 155/6/2 161/6/2
f 161/6/2 155/6/2 162/6/2
f 161/3/2 162/3/2 163/3/2
f 162/6/2 155/6/2 163/6/2
f 163/6/2 155/6/2 164/6/2
f 121/6/2 157/6/2 165/6/2
f 157/3/2 159/3/2 165/3/2
f 163/3/2 164/3/2 165/3/2
f 161/3/2 163/3/2 165/3/2
f 159/3/2 161/3/2 165/3/2
f 164/6/2 155/6/2 166/6/2
f 165/3/2 164/3/2 166/3/2
f 121/6/2 165/6/2 167/6/2
f 165/6/2 166/6/2 167/6/2
f 166/6/2 155/6/2 168/6/2
f 167/6/2 166/6/2 168/6/2
f 169/5/2 170/5/2 174/5/2
f 174/5/2 170/5/2 175/5/2
f 171/5/2 172/5/2 178/5/2
f 178/5/2 172/5/2 179/5/2
f 175/5/2 176/5/2 181/5/2
f 173/5/2 174/5/2 181/5/2
f 174/5/2 175/5/2 181/5/2
f 181/5/2 176/5/2 182/5/2
f 179/5/2 180/5/2 183/5/2
f 178/5/2 179/5/2 183/5/2
f 177/5/2 178/5/2 183/5/2
f 183/5/2 180/5/2 184/5/2
f 181/2/2 182/2/2 185/2/2
f 173/5/2 181/5/2 185/5/2
f 182/5/2 176/5/2 186/5/2
f 185/2/2 182/2/2 186/2/2
f 183/2/2 184/2/2 187/2/2
f 177/5/2 183/5/2 187/5/2
f 184/5/2 180/5/2 188/5/2
f 187/2/2 184/2/2 188/2/2
f 173/5/2 185/5/2 189/5/2
f 185/5/2 186/5/2 189/5/2
f 189/5/2 186/5/2 190/5/2
f 186/5/2 176/5/2 191/5/2
f 190/5/2 186/5/2 191/5/2
f 191/5/2 176/5/2 192/5/2
f 177/5/2 187/5/2 193/5/2
f 187/5/2 188/5/2 193/5/2
f 193/5/2 188/5/2 194/5/2
f 188/5/2 180/5/2 195/5/2
f 194/5/2 188/5/2 195/5/2
f 195/5/2 180/5/2 196/5/2
f 190/5/2 191/5/2 197/5/2
f 197/5/2 191/5/2 198/5/2
f 194/5/2 195/5/2 199/5/2
f 199/5/2 195/5/2 200/5/2
f 203/6/3 202/6/3 201/6/3
f 204/6/3 202/6/3 203/6/3
f 205/6/3 202/6/3 204/6/3
f 206/6/3 202/6/3 205/6/3
f 207/6/3 203/6/3 201/6/3
f 207/1/3 204/1/3 203/1/3
f 208/6/3 205/6/3 204/6/3
f 208/1/3 204/1/3 207/1/3
f 209/6/3 207/6/3 201/6/3
f 209/6/3 208/6/3 207/6/3
f 210/6/3 205/6/3 208/6/3
f 210/6/3 208/6/3 209/6/3
f 211/6/3 209/6/3 201/6/3
f 211/1/3 210/1/3 209/1/3
f 212/6/3 205/6/3 210/6/3
f 212/1/3 210/1/3 211/1/3
f 213/3/3 206/3/3 205/3/3
f 213/6/3 205/6/3 212/6/3
f 214/6/3 202/6/3 206/6/3
f 214/3/3 206/3/3 213/3/3
f 215/6/3 213/6/3 212/6/3
f 215/6/3 212/6/3 211/6/3
f 215/6/3 214/6/3 213/6/3
f 215/6/3 211/6/3 201/6/3
f 216/6/3 202/6/3 214/6/3
f 216/6/3 214/6/3 215/6/3
f 219/5/3 218/5/3 217/5/3
f 220/5/3 218/5/3 219/5/3
f 221/5/3 219/5/3 217/5/3
f 222/5/3 219/5/3 221/5/3
f 225/5/3 224/5/3 223/5/3
f 227/5/3 225/5/3 223/5/3
f 227/5/3 226/5/3 225/5/3
f 228/5/3 226/5/3 227/5/3
f 233/5/3 232/5/3 231/5/3
f 234/5/3 232/5/3 233/5/3
f 235/5/3 230/5/3 229/5/3
f 236/5/3 230/5/3 235/5/3
f 241/5/3 238/5/3 237/5/3
f 242/5/3 238/5/3 241/5/3
f 243/5/3 240/5/3 239/5/3
f 244/5/3 240/5/3 243/5/3
f 247/5/3 246/5/3 245/5/3
f 248/5/3 246/5/3 247/5/3
f 249/5/3 247/5/3 245/5/3
f 250/5/3 247/5/3 249/5/3
f 253/4/3 252/4/3 251/4/3
f 254/4/3 252/4/3 253/4/3
f 257/5/3 256/5/3 255/5/3
f 259/5/3 257/5/3 255/5/3
f 259/5/3 258/5/3 257/5/3
f 260/5/3 258/5/3 259/5/3
f 265/5/3 264/5/3 263/5/3
f 266/5/3 264/5/3 265/5/3
f 267/5/3 262/5/3 261/5/3
f 268/5/3 262/5/3 267/5/3
f 273/5/3 270/5/3 269/5/3
f 274/5/3 270/5/3 273/5/3
f 275/5/3 272/5/3 271/5/3
f 276/5/3 272/5/3 275/5/3
f 279/5/4 280/5/4 281/5/4
f 281/5/4 280/5/4 282/5/4
f 277/5/4 278/5/4 283/5/4
f 283/5/4 278/5/4 284/5/4
f 285/5/4 286/5/4 289/5/4
f 289/5/4 286/5/4 290/5/4
f 287/5/4 288/5/4 291/5/4
f 291/5/4 288/5/4 292/5/4
f 293/5/4 294/5/4 295/5/4
f 295/5/4 294/5/4 296/5/4
f 293/5/4 295/5/4 297/5/4
f 297/5/4 295/5/4 298/5/4
f 299/5/4 300/5/4 301/5/4
f 299/5/4 301/5/4 303/5/4
f 301/5/4 302/5/4 303/5/4
f 303/5/4 302/5/4 304/5/4
f 305/6/4 306/6/4 307/6/4
f 307/6/4 306/6/4 308/6/4
f 311/5/4 312/5/4 313/5/4
f 313/5/4 312/5/4 314/5/4
f 309/5/4 310/5/4 315/5/4
f 315/5/4 310/5/4 316/5/4
f 317/5/4 318/5/4 321/5/4
f 321/5/4 318/5/4 322/5/4
f 319/5/4 320/5/4 323/5/4
f 323/5/4 320/5/4 324/5/4
f 325/5/4 326/5/4 327/5/4
f 327/5/4 326/5/4 328/5/4
f 325/5/4 327/5/4 329/5/4
f 329/5/4 327/5/4 330/5/4
f 331/4/4 332/4/4 333/4/4
f 333/4/4 332/4/4 334/4/4
f 335/5/4 336/5/4 337/5/4
f 335/5/4 337/5/4 339/5/4
f 337/5/4 338/5/4 339/5/4
f 339/5/4 338/5/4 340/5/4
f 341/6/4 342/6/4 343/6/4
f 343/6/4 342/6/4 344/6/4
f 349/5/5 346/5/5 345/5/5
f 350/5/5 346/5/5 349/5/5
f 351/5/5 348/5/5 347/5/5
f 352/5/5 348/5/5 351/5/5
f 357/5/5 354/5/5 353/5/5
f 358/5/5 354/5/5 357/5/5
f 359/5/5 356/5/5 355/5/5
f 360/5/5 356/5/5 359/5/5
f 365/5/5 362/5/5 361/5/5
f 366/5/5 362/5/5 365/5/5
f 367/5/5 364/5/5 363/5/5
f 368/5/5 364/5/5 367/5/5
f 373/5/5 370/5/5 369/5/5
f 374/5/5 370/5/5 373/5/5
f 375/5/5 372/5/5 371/5/5
f 376/5/5 372/5/5 375/5/5
f 381/5/5 378/5/5 377/5/5
f 382/5/5 378/5/5 381/5/5
f 383/5/5 380/5/5 379/5/5
f 384/5/5 380/5/5 383/5/5
f 389/5/5 386/5/5 385/5/5
f 390/5/5 386/5/5 389/5/5
f 391/5/5 388/5/5 387/5/5
f 392/5/5 388/5/5 391/5/5
f 395/6/5 394/6/5 393/6/5
f 396/6/5 394/6/5 395/6/5
f 397/6/5 394/6/5 396/6/5
f 398/6/5 394/6/5 397/6/5
f 399/5/5 396/5/5 395/5/5
f 400/6/5 397/6/5 396/6/5
f 400/5/5 396/5/5 399/5/5
f 401/5/5 398/5/5 397/5/5
f 401/6/5 397/6/5 400/6/5
f 402/5/5 398/5/5 401/5/5
f 404/6/5 401/6/5 400/6/5
f 405/6/5 401/6/5 404/6/5
f 407/5/5 404/5/5 403/5/5
f 408/6/5 405/6/5 404/6/5
f 408/5/5 404/5/5 407/5/5
f 409/5/5 406/5/5 405/5/5
f 409/6/5 405/6/5 408/6/5
f 410/5/5 406/5/5 409/5/5
f 411/6/5 408/6/5 407/6/5
f 411/6/5 409/6/5 408/6/5
f 411/6/5 410/6/5 409/6/5
f 412/6/5 410/6/5 411/6/5
f 413/6/5 410/6/5 412/6/5
f 414/6/5 410/6/5 413/6/5
f 415/5/5 412/5/5 411/5/5
f 416/6/5 413/6/5 412/6/5
f 416/5/5 412/5/5 415/5/5
f 417/5/5 414/5/5 413/5/5
f 417/6/5 413/6/5 416/6/5
f 418/5/5 414/5/5 417/5/5
f 420/6/5 417/6/5 416/6/5
f 421/6/5 417/6/5 420/6/5
f 423/5/5 420/5/5 419/5/5
f 424/6/5 421/6/5 420/6/5
f 424/5/5 420/5/5 423/5/5
f 425/5/5 422/5/5 421/5/5
f 425/6/5 421/6/5 424/6/5
f 426/5/5 422/5/5 425/5/5
f 427/6/5 424/6/5 423/6/5
f 427/6/5 425/6/5 424/6/5
f 427/6/5 426/6/5 425/6/5
f 428/6/5 426/6/5 427/6/5
f 429/5/6 430/5/6 433/5/6
f 433/5/6 430/5/6 434/5/6
f 431/5/6 432/5/6 435/5/6
f 435/5/6 432/5/6 436/5/6
f 437/5/6 438/5/6 441/5/6
f 441/5/6 438/5/6 442/5/6
f 439/5/6 440/5/6 443/5/6
f 443/5/6 440/5/6 444/5/6
f 445/5/6 446/5/6 449/5/6
f 449/5/6 446/5/6 450/5/6
f 447/5/6 448/5/6 451/5/6
f 451/5/6 448/5/6 452/5/6
f 453/5/6 454/5/6 457/5/6
f 457/5/6 454/5/6 458/5/6
f 455/5/6 456/5/6 459/5/6
f 459/5/6 456/5/6 460/5/6
f 461/5/6 462/5/6 465/5/6
f 465/5/6 462/5/6 466/5/6
f 463/5/6 464/5/6 467/5/6
f 467/5/6 464/5/6 468/5/6
f 469/5/6 470/5/6 473/5/6
f 473/5/6 470/5/6 474/5/6
f 471/5/6 472/5/6 475/5/6
f 475/5/6 472/5/6 476/5/6
f 477/6/6 478/6/6 479/6/6
f 479/6/6 478/6/6 480/6/6
f 479/5/6 480/5/6 481/5/6
f 481/5/6 480/5/6 482/5/6
f 479/5/6 481/5/6 483/5/6
f 482/5/6 480/5/6 484/5/6
f 477/6/6 479/6/6 485/6/6
f 483/5/6 484/5/6 485/5/6
f 479/5/6 483/5/6 485/5/6
f 484/5/6 480/5/6 486/5/6
f 485/5/6 484/5/6 486/5/6
f 480/6/6 478/6/6 486/6/6
f 477/6/6 485/6/6 487/6/6
f 485/6/6 486/6/6 487/6/6
f 486/6/6 478/6/6 488/6/6
f 487/6/6 486/6/6 488/6/6
f 489/4/6 490/4/6 491/4/6
f 491/4/6 490/4/6 492/4/6
f 493/6/6 494/6/6 495/6/6
f 495/6/6 494/6/6 496/6/6
