# MagicaVoxel @ Ephtracy

# group
g van_white

# material
mtllib van_white.mtl
usemtl palette

# normals
vn -1 0 0
vn 1 0 0
vn 0 0 1
vn 0 0 -1
vn 0 -1 0
vn 0 1 0

# texcoords
vt 0.638672 0.5
vt 0.958984 0.5
vt 0.966797 0.5
vt 0.974609 0.5
vt 0.982422 0.5
vt 0.986328 0.5
vt 0.990234 0.5

# verts
v -6.5 0 14
v -6.5 0 10
v -6.5 0 -14
v -6.5 0 -18
v -6.5 1 15
v -6.5 1 14
v -6.5 1 10
v -6.5 1 9
v -6.5 1 -13
v -6.5 1 -14
v -6.5 1 -18
v -6.5 1 -19
v -6.5 2 13
v -6.5 2 11
v -6.5 2 -15
v -6.5 2 -17
v -6.5 3 21
v -6.5 3 15
v -6.5 3 9
v -6.5 3 -13
v -6.5 3 -19
v -6.5 3 -21
v -6.5 4 13
v -6.5 4 11
v -6.5 4 -15
v -6.5 4 -17
v -6.5 5 15
v -6.5 5 14
v -6.5 5 10
v -6.5 5 9
v -6.5 5 -13
v -6.5 5 -14
v -6.5 5 -18
v -6.5 5 -19
v -6.5 6 14
v -6.5 6 10
v -6.5 6 -14
v -6.5 6 -18
v -6.5 7 21
v -6.5 7 -21
v -6.5 8 21
v -6.5 8 20
v -6.5 8 -21
v -6.5 10 20
v -6.5 10 19
v -6.5 10 16
v -6.5 10 5
v -6.5 11 19
v -6.5 11 18
v -6.5 12 16
v -6.5 12 15
v -6.5 13 18
v -6.5 13 17
v -6.5 14 15
v -6.5 14 14
v -6.5 15 17
v -6.5 15 16
v -6.5 16 14
v -6.5 16 13
v -6.5 17 16
v -6.5 17 15
v -6.5 18 13
v -6.5 18 12
v -6.5 19 15
v -6.5 19 14
v -6.5 20 12
v -6.5 20 5
v -6.5 21 14
v -6.5 21 13
v -6.5 22 13
v -6.5 22 -21
v 4.5 0 14
v 4.5 0 10
v 4.5 0 -14
v 4.5 0 -18
v 4.5 1 15
v 4.5 1 14
v 4.5 1 10
v 4.5 1 9
v 4.5 1 -13
v 4.5 1 -14
v 4.5 1 -18
v 4.5 1 -19
v 4.5 3 15
v 4.5 3 9
v 4.5 3 -13
v 4.5 3 -19
v 5.5 11 2
v 5.5 11 -5
v 5.5 18 2
v 5.5 18 -5
v -4.5 0 14
v -4.5 0 10
v -4.5 0 -14
v -4.5 0 -18
v -4.5 1 15
v -4.5 1 14
v -4.5 1 10
v -4.5 1 9
v -4.5 1 -13
v -4.5 1 -14
v -4.5 1 -18
v -4.5 1 -19
v -4.5 3 15
v -4.5 3 9
v -4.5 3 -13
v -4.5 3 -19
v -3.5 11 2
v -3.5 11 -5
v -3.5 18 2
v -3.5 18 -5
v 6.5 0 14
v 6.5 0 10
v 6.5 0 -14
v 6.5 0 -18
v 6.5 1 15
v 6.5 1 14
v 6.5 1 10
v 6.5 1 9
v 6.5 1 -13
v 6.5 1 -14
v 6.5 1 -18
v 6.5 1 -19
v 6.5 2 13
v 6.5 2 11
v 6.5 2 -15
v 6.5 2 -17
v 6.5 3 21
v 6.5 3 15
v 6.5 3 9
v 6.5 3 -13
v 6.5 3 -19
v 6.5 3 -21
v 6.5 4 13
v 6.5 4 11
v 6.5 4 -15
v 6.5 4 -17
v 6.5 5 15
v 6.5 5 14
v 6.5 5 10
v 6.5 5 9
v 6.5 5 -13
v 6.5 5 -14
v 6.5 5 -18
v 6.5 5 -19
v 6.5 6 14
v 6.5 6 10
v 6.5 6 -14
v 6.5 6 -18
v 6.5 7 21
v 6.5 7 -21
v 6.5 8 21
v 6.5 8 20
v 6.5 8 -21
v 6.5 10 20
v 6.5 10 19
v 6.5 10 16
v 6.5 10 5
v 6.5 11 19
v 6.5 11 18
v 6.5 12 16
v 6.5 12 15
v 6.5 13 18
v 6.5 13 17
v 6.5 14 15
v 6.5 14 14
v 6.5 15 17
v 6.5 15 16
v 6.5 16 14
v 6.5 16 13
v 6.5 17 16
v 6.5 17 15
v 6.5 18 13
v 6.5 18 12
v 6.5 19 15
v 6.5 19 14
v 6.5 20 12
v 6.5 20 5
v 6.5 21 14
v 6.5 21 13
v 6.5 22 13
v 6.5 22 -21
v -6.5 3 21
v -6.5 7 21
v -6.5 8 21
v -5.5 4 21
v -5.5 7 21
v -2.5 4 21
v -2.5 7 21
v 2.5 4 21
v 2.5 7 21
v 5.5 4 21
v 5.5 7 21
v 6.5 3 21
v 6.5 7 21
v 6.5 8 21
v -6.5 8 20
v -6.5 10 20
v 6.5 8 20
v 6.5 10 20
v -6.5 10 19
v -6.5 11 19
v 6.5 10 19
v 6.5 11 19
v -6.5 11 18
v -6.5 13 18
v -5.5 11 18
v -5.5 13 18
v 5.5 11 18
v 5.5 13 18
v 6.5 11 18
v 6.5 13 18
v -6.5 13 17
v -6.5 15 17
v -5.5 13 17
v -5.5 15 17
v 5.5 13 17
v 5.5 15 17
v 6.5 13 17
v 6.5 15 17
v -6.5 15 16
v -6.5 17 16
v -5.5 15 16
v -5.5 17 16
v 5.5 15 16
v 5.5 17 16
v 6.5 15 16
v 6.5 17 16
v -6.5 1 15
v -6.5 3 15
v -6.5 17 15
v -6.5 19 15
v -5.5 17 15
v -5.5 19 15
v -4.5 1 15
v -4.5 3 15
v 4.5 1 15
v 4.5 3 15
v 5.5 17 15
v 5.5 19 15
v 6.5 1 15
v 6.5 3 15
v 6.5 17 15
v 6.5 19 15
v -6.5 0 14
v -6.5 1 14
v -6.5 19 14
v -6.5 21 14
v -5.5 19 14
v -5.5 21 14
v -4.5 0 14
v -4.5 1 14
v 4.5 0 14
v 4.5 1 14
v 5.5 19 14
v 5.5 21 14
v 6.5 0 14
v 6.5 1 14
v 6.5 19 14
v 6.5 21 14
v -6.5 21 13
v -6.5 22 13
v -5.5 21 13
v 5.5 21 13
v 6.5 21 13
v 6.5 22 13
v -3.5 11 -5
v -3.5 18 -5
v 5.5 11 -5
v 5.5 18 -5
v -6.5 1 -13
v -6.5 3 -13
v -4.5 1 -13
v -4.5 3 -13
v 4.5 1 -13
v 4.5 3 -13
v 6.5 1 -13
v 6.5 3 -13
v -6.5 0 -14
v -6.5 1 -14
v -4.5 0 -14
v -4.5 1 -14
v 4.5 0 -14
v 4.5 1 -14
v 6.5 0 -14
v 6.5 1 -14
v -6.5 0 10
v -6.5 1 10
v -4.5 0 10
v -4.5 1 10
v 4.5 0 10
v 4.5 1 10
v 6.5 0 10
v 6.5 1 10
v -6.5 1 9
v -6.5 3 9
v -4.5 1 9
v -4.5 3 9
v 4.5 1 9
v 4.5 3 9
v 6.5 1 9
v 6.5 3 9
v -3.5 11 2
v -3.5 18 2
v 5.5 11 2
v 5.5 18 2
v -6.5 0 -18
v -6.5 1 -18
v -4.5 0 -18
v -4.5 1 -18
v 4.5 0 -18
v 4.5 1 -18
v 6.5 0 -18
v 6.5 1 -18
v -6.5 1 -19
v -6.5 3 -19
v -4.5 1 -19
v -4.5 3 -19
v 4.5 1 -19
v 4.5 3 -19
v 6.5 1 -19
v 6.5 3 -19
v -6.5 3 -21
v -6.5 7 -21
v -6.5 8 -21
v -6.5 22 -21
v 6.5 3 -21
v 6.5 7 -21
v 6.5 8 -21
v 6.5 22 -21
v -6.5 0 14
v -4.5 0 14
v 4.5 0 14
v 6.5 0 14
v -6.5 0 10
v -4.5 0 10
v 4.5 0 10
v 6.5 0 10
v -6.5 0 -14
v -4.5 0 -14
v 4.5 0 -14
v 6.5 0 -14
v -6.5 0 -18
v -4.5 0 -18
v 4.5 0 -18
v 6.5 0 -18
v -6.5 1 15
v -4.5 1 15
v 4.5 1 15
v 6.5 1 15
v -6.5 1 14
v -4.5 1 14
v 4.5 1 14
v 6.5 1 14
v -6.5 1 10
v -4.5 1 10
v 4.5 1 10
v 6.5 1 10
v -6.5 1 9
v -4.5 1 9
v 4.5 1 9
v 6.5 1 9
v -6.5 1 -13
v -4.5 1 -13
v 4.5 1 -13
v 6.5 1 -13
v -6.5 1 -14
v -4.5 1 -14
v 4.5 1 -14
v 6.5 1 -14
v -6.5 1 -18
v -4.5 1 -18
v 4.5 1 -18
v 6.5 1 -18
v -6.5 1 -19
v -4.5 1 -19
v 4.5 1 -19
v 6.5 1 -19
v -6.5 3 21
v 6.5 3 21
v -6.5 3 15
v -4.5 3 15
v 4.5 3 15
v 6.5 3 15
v -6.5 3 9
v -4.5 3 9
v 4.5 3 9
v 6.5 3 9
v -6.5 3 -13
v -4.5 3 -13
v 4.5 3 -13
v 6.5 3 -13
v -6.5 3 -19
v -4.5 3 -19
v 4.5 3 -19
v 6.5 3 -19
v -6.5 3 -21
v 6.5 3 -21
v -3.5 18 2
v 5.5 18 2
v -3.5 18 -5
v 5.5 18 -5
v -6.5 8 21
v 6.5 8 21
v -6.5 8 20
v 6.5 8 20
v -6.5 10 20
v 6.5 10 20
v -6.5 10 19
v 6.5 10 19
v -6.5 11 19
v 6.5 11 19
v -6.5 11 18
v -5.5 11 18
v 5.5 11 18
v 6.5 11 18
v -3.5 11 2
v 5.5 11 2
v -3.5 11 -5
v 5.5 11 -5
v -6.5 13 18
v -5.5 13 18
v 5.5 13 18
v 6.5 13 18
v -6.5 13 17
v -5.5 13 17
v 5.5 13 17
v 6.5 13 17
v -6.5 15 17
v -5.5 15 17
v 5.5 15 17
v 6.5 15 17
v -6.5 15 16
v -5.5 15 16
v 5.5 15 16
v 6.5 15 16
v -6.5 17 16
v -5.5 17 16
v 5.5 17 16
v 6.5 17 16
v -6.5 17 15
v -5.5 17 15
v 5.5 17 15
v 6.5 17 15
v -6.5 19 15
v -5.5 19 15
v 5.5 19 15
v 6.5 19 15
v -6.5 19 14
v -5.5 19 14
v 5.5 19 14
v 6.5 19 14
v -6.5 21 14
v -5.5 21 14
v 5.5 21 14
v 6.5 21 14
v -6.5 21 13
v -5.5 21 13
v 5.5 21 13
v 6.5 21 13
v -6.5 22 13
v 6.5 22 13
v -6.5 22 -21
v 6.5 22 -21

# faces
f 6/7/1 2/7/1 1/7/1
f 7/7/1 2/7/1 6/7/1
f 10/7/1 4/7/1 3/7/1
f 11/7/1 4/7/1 10/7/1
f 13/7/1 8/7/1 7/7/1
f 13/7/1 6/7/1 5/7/1
f 13/7/1 7/7/1 6/7/1
f 14/7/1 8/7/1 13/7/1
f 15/7/1 12/7/1 11/7/1
f 15/7/1 11/7/1 10/7/1
f 15/7/1 10/7/1 9/7/1
f 16/7/1 12/7/1 15/7/1
f 18/7/1 13/7/1 5/7/1
f 19/7/1 8/7/1 14/7/1
f 20/7/1 15/7/1 9/7/1
f 21/7/1 12/7/1 16/7/1
f 23/4/1 14/4/1 13/4/1
f 23/7/1 13/7/1 18/7/1
f 24/7/1 19/7/1 14/7/1
f 24/4/1 14/4/1 23/4/1
f 25/4/1 16/4/1 15/4/1
f 25/7/1 15/7/1 20/7/1
f 26/7/1 21/7/1 16/7/1
f 26/4/1 16/4/1 25/4/1
f 27/3/1 18/3/1 17/3/1
f 27/7/1 23/7/1 18/7/1
f 27/7/1 24/7/1 23/7/1
f 28/7/1 24/7/1 27/7/1
f 29/7/1 19/7/1 24/7/1
f 29/7/1 24/7/1 28/7/1
f 30/3/1 20/3/1 19/3/1
f 30/7/1 19/7/1 29/7/1
f 31/7/1 26/7/1 25/7/1
f 31/3/1 20/3/1 30/3/1
f 31/7/1 25/7/1 20/7/1
f 32/7/1 26/7/1 31/7/1
f 33/7/1 21/7/1 26/7/1
f 33/7/1 26/7/1 32/7/1
f 34/3/1 22/3/1 21/3/1
f 34/7/1 21/7/1 33/7/1
f 35/7/1 29/7/1 28/7/1
f 35/3/1 28/3/1 27/3/1
f 36/3/1 32/3/1 31/3/1
f 36/7/1 29/7/1 35/7/1
f 36/3/1 30/3/1 29/3/1
f 36/3/1 31/3/1 30/3/1
f 37/7/1 33/7/1 32/7/1
f 37/3/1 32/3/1 36/3/1
f 38/3/1 34/3/1 33/3/1
f 38/7/1 33/7/1 37/7/1
f 39/3/1 35/3/1 27/3/1
f 39/3/1 36/3/1 35/3/1
f 39/3/1 38/3/1 37/3/1
f 39/3/1 27/3/1 17/3/1
f 39/3/1 37/3/1 36/3/1
f 40/3/1 34/3/1 38/3/1
f 40/3/1 38/3/1 39/3/1
f 40/3/1 22/3/1 34/3/1
f 41/6/1 40/6/1 39/6/1
f 42/6/1 40/6/1 41/6/1
f 43/6/1 40/6/1 42/6/1
f 44/3/1 43/3/1 42/3/1
f 45/3/1 43/3/1 44/3/1
f 46/3/1 43/3/1 45/3/1
f 47/3/1 43/3/1 46/3/1
f 48/3/1 46/3/1 45/3/1
f 49/3/1 46/3/1 48/3/1
f 50/4/1 47/4/1 46/4/1
f 50/3/1 46/3/1 49/3/1
f 51/4/1 47/4/1 50/4/1
f 52/3/1 50/3/1 49/3/1
f 52/3/1 51/3/1 50/3/1
f 53/3/1 51/3/1 52/3/1
f 54/4/1 47/4/1 51/4/1
f 54/3/1 51/3/1 53/3/1
f 55/4/1 47/4/1 54/4/1
f 56/3/1 54/3/1 53/3/1
f 56/3/1 55/3/1 54/3/1
f 57/3/1 55/3/1 56/3/1
f 58/4/1 47/4/1 55/4/1
f 58/3/1 55/3/1 57/3/1
f 59/4/1 47/4/1 58/4/1
f 60/3/1 58/3/1 57/3/1
f 60/3/1 59/3/1 58/3/1
f 61/3/1 59/3/1 60/3/1
f 62/4/1 47/4/1 59/4/1
f 62/3/1 59/3/1 61/3/1
f 63/4/1 47/4/1 62/4/1
f 64/3/1 62/3/1 61/3/1
f 64/3/1 63/3/1 62/3/1
f 65/3/1 63/3/1 64/3/1
f 66/4/1 47/4/1 63/4/1
f 66/3/1 63/3/1 65/3/1
f 67/3/1 43/3/1 47/3/1
f 67/4/1 47/4/1 66/4/1
f 68/3/1 66/3/1 65/3/1
f 68/3/1 67/3/1 66/3/1
f 69/3/1 67/3/1 68/3/1
f 70/3/1 67/3/1 69/3/1
f 71/3/1 43/3/1 67/3/1
f 71/3/1 67/3/1 70/3/1
f 77/7/1 73/7/1 72/7/1
f 78/7/1 73/7/1 77/7/1
f 81/7/1 75/7/1 74/7/1
f 82/7/1 75/7/1 81/7/1
f 84/7/1 79/7/1 78/7/1
f 84/7/1 77/7/1 76/7/1
f 84/7/1 78/7/1 77/7/1
f 85/7/1 79/7/1 84/7/1
f 86/7/1 83/7/1 82/7/1
f 86/7/1 82/7/1 81/7/1
f 86/7/1 81/7/1 80/7/1
f 87/7/1 83/7/1 86/7/1
f 90/3/1 89/3/1 88/3/1
f 91/3/1 89/3/1 90/3/1
f 92/7/2 93/7/2 97/7/2
f 97/7/2 93/7/2 98/7/2
f 94/7/2 95/7/2 101/7/2
f 101/7/2 95/7/2 102/7/2
f 98/7/2 99/7/2 104/7/2
f 96/7/2 97/7/2 104/7/2
f 97/7/2 98/7/2 104/7/2
f 104/7/2 99/7/2 105/7/2
f 102/7/2 103/7/2 106/7/2
f 101/7/2 102/7/2 106/7/2
f 100/7/2 101/7/2 106/7/2
f 106/7/2 103/7/2 107/7/2
f 108/5/2 109/5/2 110/5/2
f 110/5/2 109/5/2 111/5/2
f 112/7/2 113/7/2 117/7/2
f 117/7/2 113/7/2 118/7/2
f 114/7/2 115/7/2 121/7/2
f 121/7/2 115/7/2 122/7/2
f 118/7/2 119/7/2 124/7/2
f 116/7/2 117/7/2 124/7/2
f 117/7/2 118/7/2 124/7/2
f 124/7/2 119/7/2 125/7/2
f 122/7/2 123/7/2 126/7/2
f 121/7/2 122/7/2 126/7/2
f 120/7/2 121/7/2 126/7/2
f 126/7/2 123/7/2 127/7/2
f 116/7/2 124/7/2 129/7/2
f 125/7/2 119/7/2 130/7/2
f 120/7/2 126/7/2 131/7/2
f 127/7/2 123/7/2 132/7/2
f 124/4/2 125/4/2 134/4/2
f 129/7/2 124/7/2 134/7/2
f 125/7/2 130/7/2 135/7/2
f 134/4/2 125/4/2 135/4/2
f 126/4/2 127/4/2 136/4/2
f 131/7/2 126/7/2 136/7/2
f 127/7/2 132/7/2 137/7/2
f 136/4/2 127/4/2 137/4/2
f 128/3/2 129/3/2 138/3/2
f 129/7/2 134/7/2 138/7/2
f 134/7/2 135/7/2 138/7/2
f 138/7/2 135/7/2 139/7/2
f 135/7/2 130/7/2 140/7/2
f 139/7/2 135/7/2 140/7/2
f 130/3/2 131/3/2 141/3/2
f 140/7/2 130/7/2 141/7/2
f 136/7/2 137/7/2 142/7/2
f 141/3/2 131/3/2 142/3/2
f 131/7/2 136/7/2 142/7/2
f 142/7/2 137/7/2 143/7/2
f 137/7/2 132/7/2 144/7/2
f 143/7/2 137/7/2 144/7/2
f 132/3/2 133/3/2 145/3/2
f 144/7/2 132/7/2 145/7/2
f 139/7/2 140/7/2 146/7/2
f 138/3/2 139/3/2 146/3/2
f 142/3/2 143/3/2 147/3/2
f 146/7/2 140/7/2 147/7/2
f 140/3/2 141/3/2 147/3/2
f 141/3/2 142/3/2 147/3/2
f 143/7/2 144/7/2 148/7/2
f 147/3/2 143/3/2 148/3/2
f 144/3/2 145/3/2 149/3/2
f 148/7/2 144/7/2 149/7/2
f 138/3/2 146/3/2 150/3/2
f 146/3/2 147/3/2 150/3/2
f 148/3/2 149/3/2 150/3/2
f 128/3/2 138/3/2 150/3/2
f 147/3/2 148/3/2 150/3/2
f 149/3/2 145/3/2 151/3/2
f 150/3/2 149/3/2 151/3/2
f 145/3/2 133/3/2 151/3/2
f 150/6/2 151/6/2 152/6/2
f 152/6/2 151/6/2 153/6/2
f 153/6/2 151/6/2 154/6/2
f 153/3/2 154/3/2 155/3/2
f 155/3/2 154/3/2 156/3/2
f 156/3/2 154/3/2 157/3/2
f 157/3/2 154/3/2 158/3/2
f 156/3/2 157/3/2 159/3/2
f 159/3/2 157/3/2 160/3/2
f 157/4/2 158/4/2 161/4/2
f 160/3/2 157/3/2 161/3/2
f 161/4/2 158/4/2 162/4/2
f 160/3/2 161/3/2 163/3/2
f 161/3/2 162/3/2 163/3/2
f 163/3/2 162/3/2 164/3/2
f 162/4/2 158/4/2 165/4/2
f 164/3/2 162/3/2 165/3/2
f 165/4/2 158/4/2 166/4/2
f 164/3/2 165/3/2 167/3/2
f 165/3/2 166/3/2 167/3/2
f 167/3/2 166/3/2 168/3/2
f 166/4/2 158/4/2 169/4/2
f 168/3/2 166/3/2 169/3/2
f 169/4/2 158/4/2 170/4/2
f 168/3/2 169/3/2 171/3/2
f 169/3/2 170/3/2 171/3/2
f 171/3/2 170/3/2 172/3/2
f 170/4/2 158/4/2 173/4/2
f 172/3/2 170/3/2 173/3/2
f 173/4/2 158/4/2 174/4/2
f 172/3/2 173/3/2 175/3/2
f 173/3/2 174/3/2 175/3/2
f 175/3/2 174/3/2 176/3/2
f 174/4/2 158/4/2 177/4/2
f 176/3/2 174/3/2 177/3/2
f 158/3/2 154/3/2 178/3/2
f 177/4/2 158/4/2 178/4/2
f 176/3/2 177/3/2 179/3/2
f 177/3/2 178/3/2 179/3/2
f 179/3/2 178/3/2 180/3/2
f 180/3/2 178/3/2 181/3/2
f 178/3/2 154/3/2 182/3/2
f 181/3/2 178/3/2 182/3/2
f 186/3/3 184/3/3 183/3/3
f 187/6/3 185/6/3 184/6/3
f 187/3/3 184/3/3 186/3/3
f 188/3/3 186/3/3 183/3/3
f 188/2/3 187/2/3 186/2/3
f 189/6/3 185/6/3 187/6/3
f 189/2/3 187/2/3 188/2/3
f 190/3/3 188/3/3 183/3/3
f 190/3/3 189/3/3 188/3/3
f 191/6/3 185/6/3 189/6/3
f 191/3/3 189/3/3 190/3/3
f 192/3/3 190/3/3 183/3/3
f 192/2/3 191/2/3 190/2/3
f 193/6/3 185/6/3 191/6/3
f 193/2/3 191/2/3 192/2/3
f 194/3/3 192/3/3 183/3/3
f 194/3/3 193/3/3 192/3/3
f 195/6/3 185/6/3 193/6/3
f 195/3/3 193/3/3 194/3/3
f 196/6/3 185/6/3 195/6/3
f 199/3/3 198/3/3 197/3/3
f 200/3/3 198/3/3 199/3/3
f 203/3/3 202/3/3 201/3/3
f 204/3/3 202/3/3 203/3/3
f 207/3/3 206/3/3 205/3/3
f 208/3/3 206/3/3 207/3/3
f 209/4/3 208/4/3 207/4/3
f 210/4/3 208/4/3 209/4/3
f 211/3/3 210/3/3 209/3/3
f 212/3/3 210/3/3 211/3/3
f 215/3/3 214/3/3 213/3/3
f 216/3/3 214/3/3 215/3/3
f 217/4/3 216/4/3 215/4/3
f 218/4/3 216/4/3 217/4/3
f 219/3/3 218/3/3 217/3/3
f 220/3/3 218/3/3 219/3/3
f 223/3/3 222/3/3 221/3/3
f 224/3/3 222/3/3 223/3/3
f 225/4/3 224/4/3 223/4/3
f 226/4/3 224/4/3 225/4/3
f 227/3/3 226/3/3 225/3/3
f 228/3/3 226/3/3 227/3/3
f 233/3/3 232/3/3 231/3/3
f 234/3/3 232/3/3 233/3/3
f 235/7/3 230/7/3 229/7/3
f 236/7/3 230/7/3 235/7/3
f 239/4/3 234/4/3 233/4/3
f 240/4/3 234/4/3 239/4/3
f 241/7/3 238/7/3 237/7/3
f 242/7/3 238/7/3 241/7/3
f 243/3/3 240/3/3 239/3/3
f 244/3/3 240/3/3 243/3/3
f 249/3/3 248/3/3 247/3/3
f 250/3/3 248/3/3 249/3/3
f 251/7/3 246/7/3 245/7/3
f 252/7/3 246/7/3 251/7/3
f 255/4/3 250/4/3 249/4/3
f 256/4/3 250/4/3 255/4/3
f 257/7/3 254/7/3 253/7/3
f 258/7/3 254/7/3 257/7/3
f 259/3/3 256/3/3 255/3/3
f 260/3/3 256/3/3 259/3/3
f 263/3/3 262/3/3 261/3/3
f 264/3/3 262/3/3 263/3/3
f 265/3/3 262/3/3 264/3/3
f 266/3/3 262/3/3 265/3/3
f 269/5/3 268/5/3 267/5/3
f 270/5/3 268/5/3 269/5/3
f 273/7/3 272/7/3 271/7/3
f 274/7/3 272/7/3 273/7/3
f 277/7/3 276/7/3 275/7/3
f 278/7/3 276/7/3 277/7/3
f 281/7/3 280/7/3 279/7/3
f 282/7/3 280/7/3 281/7/3
f 285/7/3 284/7/3 283/7/3
f 286/7/3 284/7/3 285/7/3
f 287/7/4 288/7/4 289/7/4
f 289/7/4 288/7/4 290/7/4
f 291/7/4 292/7/4 293/7/4
f 293/7/4 292/7/4 294/7/4
f 295/7/4 296/7/4 297/7/4
f 297/7/4 296/7/4 298/7/4
f 299/7/4 300/7/4 301/7/4
f 301/7/4 300/7/4 302/7/4
f 303/5/4 304/5/4 305/5/4
f 305/5/4 304/5/4 306/5/4
f 307/7/4 308/7/4 309/7/4
f 309/7/4 308/7/4 310/7/4
f 311/7/4 312/7/4 313/7/4
f 313/7/4 312/7/4 314/7/4
f 315/7/4 316/7/4 317/7/4
f 317/7/4 316/7/4 318/7/4
f 319/7/4 320/7/4 321/7/4
f 321/7/4 320/7/4 322/7/4
f 323/3/4 324/3/4 327/3/4
f 324/6/4 325/6/4 328/6/4
f 327/3/4 324/3/4 328/3/4
f 325/3/4 326/3/4 329/3/4
f 328/6/4 325/6/4 329/6/4
f 329/3/4 326/3/4 330/3/4
f 335/7/5 332/7/5 331/7/5
f 336/7/5 332/7/5 335/7/5
f 337/7/5 334/7/5 333/7/5
f 338/7/5 334/7/5 337/7/5
f 343/7/5 340/7/5 339/7/5
f 344/7/5 340/7/5 343/7/5
f 345/7/5 342/7/5 341/7/5
f 346/7/5 342/7/5 345/7/5
f 351/7/5 348/7/5 347/7/5
f 352/7/5 348/7/5 351/7/5
f 353/7/5 350/7/5 349/7/5
f 354/7/5 350/7/5 353/7/5
f 359/7/5 356/7/5 355/7/5
f 360/7/5 356/7/5 359/7/5
f 361/7/5 358/7/5 357/7/5
f 362/7/5 358/7/5 361/7/5
f 367/7/5 364/7/5 363/7/5
f 368/7/5 364/7/5 367/7/5
f 369/7/5 366/7/5 365/7/5
f 370/7/5 366/7/5 369/7/5
f 375/7/5 372/7/5 371/7/5
f 376/7/5 372/7/5 375/7/5
f 377/7/5 374/7/5 373/7/5
f 378/7/5 374/7/5 377/7/5
f 381/3/5 380/3/5 379/3/5
f 382/3/5 380/3/5 381/3/5
f 383/3/5 380/3/5 382/3/5
f 384/3/5 380/3/5 383/3/5
f 386/3/5 383/3/5 382/3/5
f 387/3/5 383/3/5 386/3/5
f 389/3/5 386/3/5 385/3/5
f 389/3/5 388/3/5 387/3/5
f 389/3/5 387/3/5 386/3/5
f 390/3/5 388/3/5 389/3/5
f 391/3/5 388/3/5 390/3/5
f 392/3/5 388/3/5 391/3/5
f 394/3/5 391/3/5 390/3/5
f 395/3/5 391/3/5 394/3/5
f 397/3/5 394/3/5 393/3/5
f 397/3/5 396/3/5 395/3/5
f 397/3/5 395/3/5 394/3/5
f 398/3/5 396/3/5 397/3/5
f 401/5/5 400/5/5 399/5/5
f 402/5/5 400/5/5 401/5/5
f 403/6/6 404/6/6 405/6/6
f 405/6/6 404/6/6 406/6/6
f 407/3/6 408/3/6 409/3/6
f 409/3/6 408/3/6 410/3/6
f 411/3/6 412/3/6 413/3/6
f 413/3/6 412/3/6 414/3/6
f 414/3/6 412/3/6 415/3/6
f 415/3/6 412/3/6 416/3/6
f 417/5/6 418/5/6 419/5/6
f 419/5/6 418/5/6 420/5/6
f 421/3/6 422/3/6 425/3/6
f 422/4/6 423/4/6 426/4/6
f 425/3/6 422/3/6 426/3/6
f 423/3/6 424/3/6 427/3/6
f 426/4/6 423/4/6 427/4/6
f 427/3/6 424/3/6 428/3/6
f 429/3/6 430/3/6 433/3/6
f 430/4/6 431/4/6 434/4/6
f 433/3/6 430/3/6 434/3/6
f 431/3/6 432/3/6 435/3/6
f 434/4/6 431/4/6 435/4/6
f 435/3/6 432/3/6 436/3/6
f 437/3/6 438/3/6 441/3/6
f 438/4/6 439/4/6 442/4/6
f 441/3/6 438/3/6 442/3/6
f 439/3/6 440/3/6 443/3/6
f 442/4/6 439/4/6 443/4/6
f 443/3/6 440/3/6 444/3/6
f 445/3/6 446/3/6 449/3/6
f 446/4/6 447/4/6 450/4/6
f 449/3/6 446/3/6 450/3/6
f 447/3/6 448/3/6 451/3/6
f 450/4/6 447/4/6 451/4/6
f 451/3/6 448/3/6 452/3/6
f 453/3/6 454/3/6 457/3/6
f 454/4/6 455/4/6 458/4/6
f 457/3/6 454/3/6 458/3/6
f 455/3/6 456/3/6 459/3/6
f 458/4/6 455/4/6 459/4/6
f 459/3/6 456/3/6 460/3/6
f 461/3/6 462/3/6 463/3/6
f 463/3/6 462/3/6 464/3/6
