# MagicaVoxel @ Ephtracy

# group
g sports_pink

# material
mtllib sports_pink.mtl
usemtl palette

# normals
vn -1 0 0
vn 1 0 0
vn 0 0 1
vn 0 0 -1
vn 0 -1 0
vn 0 1 0

# texcoords
vt 0.134766 0.5
vt 0.638672 0.5
vt 0.775391 0.5
vt 0.853516 0.5
vt 0.958984 0.5
vt 0.974609 0.5
vt 0.978516 0.5
vt 0.982422 0.5
vt 0.990234 0.5
vt 0.994141 0.5

# verts
v -5.5 1 9.5
v -5.5 1 5.5
v -5.5 1 -6.5
v -5.5 1 -10.5
v -5.5 2 10.5
v -5.5 2 9.5
v -5.5 2 5.5
v -5.5 2 4.5
v -5.5 2 -5.5
v -5.5 2 -6.5
v -5.5 2 -10.5
v -5.5 2 -11.5
v -5.5 3 11.5
v -5.5 3 10.5
v -5.5 3 8.5
v -5.5 3 6.5
v -5.5 3 4.5
v -5.5 3 -5.5
v -5.5 3 -7.5
v -5.5 3 -9.5
v -5.5 3 -11.5
v -5.5 3 -12.5
v -5.5 5 8.5
v -5.5 5 6.5
v -5.5 5 -7.5
v -5.5 5 -9.5
v -5.5 6 10.5
v -5.5 6 9.5
v -5.5 6 5.5
v -5.5 6 4.5
v -5.5 6 -5.5
v -5.5 6 -6.5
v -5.5 6 -10.5
v -5.5 6 -11.5
v -5.5 7 11.5
v -5.5 7 10.5
v -5.5 7 9.5
v -5.5 7 5.5
v -5.5 7 -6.5
v -5.5 7 -10.5
v -5.5 7 -11.5
v -5.5 7 -12.5
v -5.5 8 10.5
v -5.5 8 8.5
v -5.5 9 8.5
v -5.5 9 6.5
v -5.5 9 -10.5
v -5.5 9 -11.5
v -5.5 10 6.5
v -5.5 10 4.5
v -5.5 10 -9.5
v -5.5 10 -10.5
v -5.5 11 4.5
v -5.5 11 -9.5
v 3.5 1 9.5
v 3.5 1 5.5
v 3.5 1 -6.5
v 3.5 1 -10.5
v 3.5 2 10.5
v 3.5 2 9.5
v 3.5 2 5.5
v 3.5 2 4.5
v 3.5 2 -5.5
v 3.5 2 -6.5
v 3.5 2 -10.5
v 3.5 2 -11.5
v 3.5 3 10.5
v 3.5 3 4.5
v 3.5 3 -5.5
v 3.5 3 -11.5
v -3.5 1 9.5
v -3.5 1 5.5
v -3.5 1 -6.5
v -3.5 1 -10.5
v -3.5 2 10.5
v -3.5 2 9.5
v -3.5 2 5.5
v -3.5 2 4.5
v -3.5 2 -5.5
v -3.5 2 -6.5
v -3.5 2 -10.5
v -3.5 2 -11.5
v -3.5 3 10.5
v -3.5 3 4.5
v -3.5 3 -5.5
v -3.5 3 -11.5
v 5.5 1 9.5
v 5.5 1 5.5
v 5.5 1 -6.5
v 5.5 1 -10.5
v 5.5 2 10.5
v 5.5 2 9.5
v 5.5 2 5.5
v 5.5 2 4.5
v 5.5 2 -5.5
v 5.5 2 -6.5
v 5.5 2 -10.5
v 5.5 2 -11.5
v 5.5 3 11.5
v 5.5 3 10.5
v 5.5 3 8.5
v 5.5 3 6.5
v 5.5 3 4.5
v 5.5 3 -5.5
v 5.5 3 -7.5
v 5.5 3 -9.5
v 5.5 3 -11.5
v 5.5 3 -12.5
v 5.5 5 8.5
v 5.5 5 6.5
v 5.5 5 -7.5
v 5.5 5 -9.5
v 5.5 6 10.5
v 5.5 6 9.5
v 5.5 6 5.5
v 5.5 6 4.5
v 5.5 6 -5.5
v 5.5 6 -6.5
v 5.5 6 -10.5
v 5.5 6 -11.5
v 5.5 7 11.5
v 5.5 7 10.5
v 5.5 7 9.5
v 5.5 7 5.5
v 5.5 7 -6.5
v 5.5 7 -10.5
v 5.5 7 -11.5
v 5.5 7 -12.5
v 5.5 8 10.5
v 5.5 8 8.5
v 5.5 9 8.5
v 5.5 9 6.5
v 5.5 9 -10.5
v 5.5 9 -11.5
v 5.5 10 6.5
v 5.5 10 4.5
v 5.5 10 -9.5
v 5.5 10 -10.5
v 5.5 11 4.5
v 5.5 11 -9.5
v -5.5 3 11.5
v -5.5 7 11.5
v -4.5 4 11.5
v -4.5 6 11.5
v -2.5 4 11.5
v -2.5 6 11.5
v 2.5 4 11.5
v 2.5 6 11.5
v 4.5 4 11.5
v 4.5 6 11.5
v 5.5 3 11.5
v 5.5 7 11.5
v -5.5 2 10.5
v -5.5 3 10.5
v -5.5 7 10.5
v -5.5 8 10.5
v -4.5 7 10.5
v -4.5 8 10.5
v -3.5 2 10.5
v -3.5 3 10.5
v 3.5 2 10.5
v 3.5 3 10.5
v 4.5 7 10.5
v 4.5 8 10.5
v 5.5 2 10.5
v 5.5 3 10.5
v 5.5 7 10.5
v 5.5 8 10.5
v -5.5 1 9.5
v -5.5 2 9.5
v -3.5 1 9.5
v -3.5 2 9.5
v 3.5 1 9.5
v 3.5 2 9.5
v 5.5 1 9.5
v 5.5 2 9.5
v -5.5 8 8.5
v -5.5 9 8.5
v -4.5 8 8.5
v -4.5 9 8.5
v 4.5 8 8.5
v 4.5 9 8.5
v 5.5 8 8.5
v 5.5 9 8.5
v -5.5 9 6.5
v -5.5 10 6.5
v -4.5 9 6.5
v -4.5 10 6.5
v 4.5 9 6.5
v 4.5 10 6.5
v 5.5 9 6.5
v 5.5 10 6.5
v -5.5 10 4.5
v -5.5 11 4.5
v -4.5 10 4.5
v 4.5 10 4.5
v 5.5 10 4.5
v 5.5 11 4.5
v -5.5 2 -5.5
v -5.5 3 -5.5
v -3.5 2 -5.5
v -3.5 3 -5.5
v 3.5 2 -5.5
v 3.5 3 -5.5
v 5.5 2 -5.5
v 5.5 3 -5.5
v -5.5 1 -6.5
v -5.5 2 -6.5
v -3.5 1 -6.5
v -3.5 2 -6.5
v 3.5 1 -6.5
v 3.5 2 -6.5
v 5.5 1 -6.5
v 5.5 2 -6.5
v -5.5 1 5.5
v -5.5 2 5.5
v -3.5 1 5.5
v -3.5 2 5.5
v 3.5 1 5.5
v 3.5 2 5.5
v 5.5 1 5.5
v 5.5 2 5.5
v -5.5 2 4.5
v -5.5 3 4.5
v -3.5 2 4.5
v -3.5 3 4.5
v 3.5 2 4.5
v 3.5 3 4.5
v 5.5 2 4.5
v 5.5 3 4.5
v -5.5 10 -9.5
v -5.5 11 -9.5
v 5.5 10 -9.5
v 5.5 11 -9.5
v -5.5 1 -10.5
v -5.5 2 -10.5
v -5.5 9 -10.5
v -5.5 10 -10.5
v -3.5 1 -10.5
v -3.5 2 -10.5
v 3.5 1 -10.5
v 3.5 2 -10.5
v 5.5 1 -10.5
v 5.5 2 -10.5
v 5.5 9 -10.5
v 5.5 10 -10.5
v -5.5 2 -11.5
v -5.5 3 -11.5
v -5.5 7 -11.5
v -5.5 9 -11.5
v -3.5 2 -11.5
v -3.5 3 -11.5
v 3.5 2 -11.5
v 3.5 3 -11.5
v 5.5 2 -11.5
v 5.5 3 -11.5
v 5.5 7 -11.5
v 5.5 9 -11.5
v -5.5 3 -12.5
v -5.5 7 -12.5
v -4.5 4 -12.5
v -4.5 5 -12.5
v -4.5 6 -12.5
v -2.5 4 -12.5
v -2.5 5 -12.5
v -2.5 6 -12.5
v 2.5 4 -12.5
v 2.5 5 -12.5
v 2.5 6 -12.5
v 4.5 4 -12.5
v 4.5 5 -12.5
v 4.5 6 -12.5
v 5.5 3 -12.5
v 5.5 7 -12.5
v -5.5 1 9.5
v -3.5 1 9.5
v 3.5 1 9.5
v 5.5 1 9.5
v -5.5 1 5.5
v -3.5 1 5.5
v 3.5 1 5.5
v 5.5 1 5.5
v -5.5 1 -6.5
v -3.5 1 -6.5
v 3.5 1 -6.5
v 5.5 1 -6.5
v -5.5 1 -10.5
v -3.5 1 -10.5
v 3.5 1 -10.5
v 5.5 1 -10.5
v -5.5 2 10.5
v -3.5 2 10.5
v 3.5 2 10.5
v 5.5 2 10.5
v -5.5 2 9.5
v -3.5 2 9.5
v 3.5 2 9.5
v 5.5 2 9.5
v -5.5 2 5.5
v -3.5 2 5.5
v 3.5 2 5.5
v 5.5 2 5.5
v -5.5 2 4.5
v -3.5 2 4.5
v 3.5 2 4.5
v 5.5 2 4.5
v -5.5 2 -5.5
v -3.5 2 -5.5
v 3.5 2 -5.5
v 5.5 2 -5.5
v -5.5 2 -6.5
v -3.5 2 -6.5
v 3.5 2 -6.5
v 5.5 2 -6.5
v -5.5 2 -10.5
v -3.5 2 -10.5
v 3.5 2 -10.5
v 5.5 2 -10.5
v -5.5 2 -11.5
v -3.5 2 -11.5
v 3.5 2 -11.5
v 5.5 2 -11.5
v -5.5 3 11.5
v 5.5 3 11.5
v -5.5 3 10.5
v -3.5 3 10.5
v 3.5 3 10.5
v 5.5 3 10.5
v -5.5 3 4.5
v -3.5 3 4.5
v 3.5 3 4.5
v 5.5 3 4.5
v -5.5 3 -5.5
v -3.5 3 -5.5
v 3.5 3 -5.5
v 5.5 3 -5.5
v -5.5 3 -11.5
v -3.5 3 -11.5
v 3.5 3 -11.5
v 5.5 3 -11.5
v -5.5 3 -12.5
v 5.5 3 -12.5
v -5.5 7 11.5
v 5.5 7 11.5
v -5.5 7 10.5
v -4.5 7 10.5
v 4.5 7 10.5
v 5.5 7 10.5
v -5.5 7 -11.5
v 5.5 7 -11.5
v -5.5 7 -12.5
v 5.5 7 -12.5
v -5.5 8 10.5
v -4.5 8 10.5
v 4.5 8 10.5
v 5.5 8 10.5
v -5.5 8 8.5
v -4.5 8 8.5
v 4.5 8 8.5
v 5.5 8 8.5
v -5.5 9 8.5
v -4.5 9 8.5
v 4.5 9 8.5
v 5.5 9 8.5
v -5.5 9 6.5
v -4.5 9 6.5
v 4.5 9 6.5
v 5.5 9 6.5
v -5.5 9 -10.5
v 5.5 9 -10.5
v -5.5 9 -11.5
v 5.5 9 -11.5
v -5.5 10 6.5
v -4.5 10 6.5
v 4.5 10 6.5
v 5.5 10 6.5
v -5.5 10 4.5
v -4.5 10 4.5
v 4.5 10 4.5
v 5.5 10 4.5
v -5.5 10 -9.5
v 5.5 10 -9.5
v -5.5 10 -10.5
v 5.5 10 -10.5
v -5.5 11 4.5
v 5.5 11 4.5
v -5.5 11 -9.5
v 5.5 11 -9.5

# faces
f 6/9/1 2/9/1 1/9/1
f 7/9/1 2/9/1 6/9/1
f 10/9/1 4/9/1 3/9/1
f 11/9/1 4/9/1 10/9/1
f 14/9/1 8/9/1 7/9/1
f 14/9/1 6/9/1 5/9/1
f 14/9/1 7/9/1 6/9/1
f 15/9/1 8/9/1 14/9/1
f 16/9/1 8/9/1 15/9/1
f 17/9/1 8/9/1 16/9/1
f 18/9/1 12/9/1 11/9/1
f 18/9/1 11/9/1 10/9/1
f 18/9/1 10/9/1 9/9/1
f 19/9/1 12/9/1 18/9/1
f 20/9/1 12/9/1 19/9/1
f 21/9/1 12/9/1 20/9/1
f 23/6/1 16/6/1 15/6/1
f 23/9/1 15/9/1 14/9/1
f 24/9/1 17/9/1 16/9/1
f 24/6/1 16/6/1 23/6/1
f 25/9/1 19/9/1 18/9/1
f 25/6/1 20/6/1 19/6/1
f 26/9/1 21/9/1 20/9/1
f 26/6/1 20/6/1 25/6/1
f 27/9/1 23/9/1 14/9/1
f 27/1/1 14/1/1 13/1/1
f 27/9/1 24/9/1 23/9/1
f 28/9/1 24/9/1 27/9/1
f 29/9/1 17/9/1 24/9/1
f 29/9/1 24/9/1 28/9/1
f 30/1/1 18/1/1 17/1/1
f 30/9/1 17/9/1 29/9/1
f 31/9/1 25/9/1 18/9/1
f 31/1/1 18/1/1 30/1/1
f 31/9/1 26/9/1 25/9/1
f 32/9/1 26/9/1 31/9/1
f 33/9/1 21/9/1 26/9/1
f 33/9/1 26/9/1 32/9/1
f 34/1/1 22/1/1 21/1/1
f 34/9/1 21/9/1 33/9/1
f 35/1/1 27/1/1 13/1/1
f 35/1/1 28/1/1 27/1/1
f 36/1/1 28/1/1 35/1/1
f 37/9/1 29/9/1 28/9/1
f 37/1/1 28/1/1 36/1/1
f 38/1/1 32/1/1 31/1/1
f 38/9/1 29/9/1 37/9/1
f 38/1/1 30/1/1 29/1/1
f 38/1/1 31/1/1 30/1/1
f 39/9/1 33/9/1 32/9/1
f 39/1/1 32/1/1 38/1/1
f 40/1/1 34/1/1 33/1/1
f 40/9/1 33/9/1 39/9/1
f 41/1/1 22/1/1 34/1/1
f 41/1/1 34/1/1 40/1/1
f 42/1/1 22/1/1 41/1/1
f 43/1/1 37/1/1 36/1/1
f 43/1/1 38/1/1 37/1/1
f 43/1/1 41/1/1 40/1/1
f 43/1/1 39/1/1 38/1/1
f 43/1/1 40/1/1 39/1/1
f 44/1/1 41/1/1 43/1/1
f 45/1/1 41/1/1 44/1/1
f 46/1/1 41/1/1 45/1/1
f 47/1/1 41/1/1 46/1/1
f 48/1/1 41/1/1 47/1/1
f 49/1/1 47/1/1 46/1/1
f 50/1/1 47/1/1 49/1/1
f 51/1/1 47/1/1 50/1/1
f 52/1/1 47/1/1 51/1/1
f 53/1/1 51/1/1 50/1/1
f 54/1/1 51/1/1 53/1/1
f 60/9/1 56/9/1 55/9/1
f 61/9/1 56/9/1 60/9/1
f 64/9/1 58/9/1 57/9/1
f 65/9/1 58/9/1 64/9/1
f 67/9/1 62/9/1 61/9/1
f 67/9/1 60/9/1 59/9/1
f 67/9/1 61/9/1 60/9/1
f 68/9/1 62/9/1 67/9/1
f 69/9/1 66/9/1 65/9/1
f 69/9/1 65/9/1 64/9/1
f 69/9/1 64/9/1 63/9/1
f 70/9/1 66/9/1 69/9/1
f 71/9/2 72/9/2 76/9/2
f 76/9/2 72/9/2 77/9/2
f 73/9/2 74/9/2 80/9/2
f 80/9/2 74/9/2 81/9/2
f 77/9/2 78/9/2 83/9/2
f 75/9/2 76/9/2 83/9/2
f 76/9/2 77/9/2 83/9/2
f 83/9/2 78/9/2 84/9/2
f 81/9/2 82/9/2 85/9/2
f 80/9/2 81/9/2 85/9/2
f 79/9/2 80/9/2 85/9/2
f 85/9/2 82/9/2 86/9/2
f 87/9/2 88/9/2 92/9/2
f 92/9/2 88/9/2 93/9/2
f 89/9/2 90/9/2 96/9/2
f 96/9/2 90/9/2 97/9/2
f 93/9/2 94/9/2 100/9/2
f 91/9/2 92/9/2 100/9/2
f 92/9/2 93/9/2 100/9/2
f 100/9/2 94/9/2 101/9/2
f 101/9/2 94/9/2 102/9/2
f 102/9/2 94/9/2 103/9/2
f 97/9/2 98/9/2 104/9/2
f 96/9/2 97/9/2 104/9/2
f 95/9/2 96/9/2 104/9/2
f 104/9/2 98/9/2 105/9/2
f 105/9/2 98/9/2 106/9/2
f 106/9/2 98/9/2 107/9/2
f 101/6/2 102/6/2 109/6/2
f 100/9/2 101/9/2 109/9/2
f 102/9/2 103/9/2 110/9/2
f 109/6/2 102/6/2 110/6/2
f 104/9/2 105/9/2 111/9/2
f 105/6/2 106/6/2 111/6/2
f 106/9/2 107/9/2 112/9/2
f 111/6/2 106/6/2 112/6/2
f 100/9/2 109/9/2 113/9/2
f 99/1/2 100/1/2 113/1/2
f 109/9/2 110/9/2 113/9/2
f 113/9/2 110/9/2 114/9/2
f 110/9/2 103/9/2 115/9/2
f 114/9/2 110/9/2 115/9/2
f 103/1/2 104/1/2 116/1/2
f 115/9/2 103/9/2 116/9/2
f 104/9/2 111/9/2 117/9/2
f 116/1/2 104/1/2 117/1/2
f 111/9/2 112/9/2 117/9/2
f 117/9/2 112/9/2 118/9/2
f 112/9/2 107/9/2 119/9/2
f 118/9/2 112/9/2 119/9/2
f 107/1/2 108/1/2 120/1/2
f 119/9/2 107/9/2 120/9/2
f 99/1/2 113/1/2 121/1/2
f 113/1/2 114/1/2 121/1/2
f 121/1/2 114/1/2 122/1/2
f 114/9/2 115/9/2 123/9/2
f 122/1/2 114/1/2 123/1/2
f 117/1/2 118/1/2 124/1/2
f 123/9/2 115/9/2 124/9/2
f 115/1/2 116/1/2 124/1/2
f 116/1/2 117/1/2 124/1/2
f 118/9/2 119/9/2 125/9/2
f 124/1/2 118/1/2 125/1/2
f 119/1/2 120/1/2 126/1/2
f 125/9/2 119/9/2 126/9/2
f 120/1/2 108/1/2 127/1/2
f 126/1/2 120/1/2 127/1/2
f 127/1/2 108/1/2 128/1/2
f 122/1/2 123/1/2 129/1/2
f 123/1/2 124/1/2 129/1/2
f 126/1/2 127/1/2 129/1/2
f 124/1/2 125/1/2 129/1/2
f 125/1/2 126/1/2 129/1/2
f 129/1/2 127/1/2 130/1/2
f 130/1/2 127/1/2 131/1/2
f 131/1/2 127/1/2 132/1/2
f 132/1/2 127/1/2 133/1/2
f 133/1/2 127/1/2 134/1/2
f 132/1/2 133/1/2 135/1/2
f 135/1/2 133/1/2 136/1/2
f 136/1/2 133/1/2 137/1/2
f 137/1/2 133/1/2 138/1/2
f 136/1/2 137/1/2 139/1/2
f 139/1/2 137/1/2 140/1/2
f 143/1/3 142/1/3 141/1/3
f 144/1/3 142/1/3 143/1/3
f 145/1/3 143/1/3 141/1/3
f 145/5/3 144/5/3 143/5/3
f 146/1/3 142/1/3 144/1/3
f 146/5/3 144/5/3 145/5/3
f 147/1/3 145/1/3 141/1/3
f 147/1/3 146/1/3 145/1/3
f 148/1/3 142/1/3 146/1/3
f 148/1/3 146/1/3 147/1/3
f 149/1/3 147/1/3 141/1/3
f 149/5/3 148/5/3 147/5/3
f 150/1/3 142/1/3 148/1/3
f 150/5/3 148/5/3 149/5/3
f 151/1/3 149/1/3 141/1/3
f 151/1/3 150/1/3 149/1/3
f 152/1/3 142/1/3 150/1/3
f 152/1/3 150/1/3 151/1/3
f 157/1/3 156/1/3 155/1/3
f 158/1/3 156/1/3 157/1/3
f 159/9/3 154/9/3 153/9/3
f 160/9/3 154/9/3 159/9/3
f 163/10/3 158/10/3 157/10/3
f 164/10/3 158/10/3 163/10/3
f 165/9/3 162/9/3 161/9/3
f 166/9/3 162/9/3 165/9/3
f 167/1/3 164/1/3 163/1/3
f 168/1/3 164/1/3 167/1/3
f 171/9/3 170/9/3 169/9/3
f 172/9/3 170/9/3 171/9/3
f 175/9/3 174/9/3 173/9/3
f 176/9/3 174/9/3 175/9/3
f 179/1/3 178/1/3 177/1/3
f 180/1/3 178/1/3 179/1/3
f 181/10/3 180/10/3 179/10/3
f 182/10/3 180/10/3 181/10/3
f 183/1/3 182/1/3 181/1/3
f 184/1/3 182/1/3 183/1/3
f 187/1/3 186/1/3 185/1/3
f 188/1/3 186/1/3 187/1/3
f 189/10/3 188/10/3 187/10/3
f 190/10/3 188/10/3 189/10/3
f 191/1/3 190/1/3 189/1/3
f 192/1/3 190/1/3 191/1/3
f 195/1/3 194/1/3 193/1/3
f 196/1/3 194/1/3 195/1/3
f 197/1/3 194/1/3 196/1/3
f 198/1/3 194/1/3 197/1/3
f 201/9/3 200/9/3 199/9/3
f 202/9/3 200/9/3 201/9/3
f 205/9/3 204/9/3 203/9/3
f 206/9/3 204/9/3 205/9/3
f 209/9/3 208/9/3 207/9/3
f 210/9/3 208/9/3 209/9/3
f 213/9/3 212/9/3 211/9/3
f 214/9/3 212/9/3 213/9/3
f 215/9/4 216/9/4 217/9/4
f 217/9/4 216/9/4 218/9/4
f 219/9/4 220/9/4 221/9/4
f 221/9/4 220/9/4 222/9/4
f 223/9/4 224/9/4 225/9/4
f 225/9/4 224/9/4 226/9/4
f 227/9/4 228/9/4 229/9/4
f 229/9/4 228/9/4 230/9/4
f 231/1/4 232/1/4 233/1/4
f 233/1/4 232/1/4 234/1/4
f 235/9/4 236/9/4 239/9/4
f 239/9/4 236/9/4 240/9/4
f 241/9/4 242/9/4 243/9/4
f 243/9/4 242/9/4 244/9/4
f 237/1/4 238/1/4 245/1/4
f 245/1/4 238/1/4 246/1/4
f 247/9/4 248/9/4 251/9/4
f 251/9/4 248/9/4 252/9/4
f 253/9/4 254/9/4 255/9/4
f 255/9/4 254/9/4 256/9/4
f 249/1/4 250/1/4 257/1/4
f 257/1/4 250/1/4 258/1/4
f 259/1/4 260/1/4 261/1/4
f 261/1/4 260/1/4 262/1/4
f 262/1/4 260/1/4 263/1/4
f 259/1/4 261/1/4 264/1/4
f 261/5/4 262/5/4 264/5/4
f 262/4/4 263/4/4 265/4/4
f 264/5/4 262/5/4 265/5/4
f 263/1/4 260/1/4 266/1/4
f 265/4/4 263/4/4 266/4/4
f 264/1/4 265/1/4 267/1/4
f 259/1/4 264/1/4 267/1/4
f 265/1/4 266/1/4 267/1/4
f 267/1/4 266/1/4 268/1/4
f 266/1/4 260/1/4 269/1/4
f 268/1/4 266/1/4 269/1/4
f 267/5/4 268/5/4 270/5/4
f 259/1/4 267/1/4 270/1/4
f 268/4/4 269/4/4 271/4/4
f 270/5/4 268/5/4 271/5/4
f 269/1/4 260/1/4 272/1/4
f 271/4/4 269/4/4 272/4/4
f 270/1/4 271/1/4 273/1/4
f 259/1/4 270/1/4 273/1/4
f 271/1/4 272/1/4 273/1/4
f 272/1/4 260/1/4 274/1/4
f 273/1/4 272/1/4 274/1/4
f 279/9/5 276/9/5 275/9/5
f 280/9/5 276/9/5 279/9/5
f 281/9/5 278/9/5 277/9/5
f 282/9/5 278/9/5 281/9/5
f 287/9/5 284/9/5 283/9/5
f 288/9/5 284/9/5 287/9/5
f 289/9/5 286/9/5 285/9/5
f 290/9/5 286/9/5 289/9/5
f 295/9/5 292/9/5 291/9/5
f 296/9/5 292/9/5 295/9/5
f 297/9/5 294/9/5 293/9/5
f 298/9/5 294/9/5 297/9/5
f 303/9/5 300/9/5 299/9/5
f 304/9/5 300/9/5 303/9/5
f 305/9/5 302/9/5 301/9/5
f 306/9/5 302/9/5 305/9/5
f 311/9/5 308/9/5 307/9/5
f 312/9/5 308/9/5 311/9/5
f 313/9/5 310/9/5 309/9/5
f 314/9/5 310/9/5 313/9/5
f 319/9/5 316/9/5 315/9/5
f 320/9/5 316/9/5 319/9/5
f 321/9/5 318/9/5 317/9/5
f 322/9/5 318/9/5 321/9/5
f 325/1/5 324/1/5 323/1/5
f 326/1/5 324/1/5 325/1/5
f 327/1/5 324/1/5 326/1/5
f 328/1/5 324/1/5 327/1/5
f 330/1/5 327/1/5 326/1/5
f 331/1/5 327/1/5 330/1/5
f 333/1/5 330/1/5 329/1/5
f 333/1/5 332/1/5 331/1/5
f 333/1/5 331/1/5 330/1/5
f 334/1/5 332/1/5 333/1/5
f 335/1/5 332/1/5 334/1/5
f 336/1/5 332/1/5 335/1/5
f 338/1/5 335/1/5 334/1/5
f 339/1/5 335/1/5 338/1/5
f 341/1/5 338/1/5 337/1/5
f 341/1/5 340/1/5 339/1/5
f 341/1/5 339/1/5 338/1/5
f 342/1/5 340/1/5 341/1/5
f 343/1/6 344/1/6 345/1/6
f 345/1/6 344/1/6 346/1/6
f 346/1/6 344/1/6 347/1/6
f 347/1/6 344/1/6 348/1/6
f 349/1/6 350/1/6 351/1/6
f 351/1/6 350/1/6 352/1/6
f 353/1/6 354/1/6 357/1/6
f 354/10/6 355/10/6 358/10/6
f 357/1/6 354/1/6 358/1/6
f 355/1/6 356/1/6 359/1/6
f 358/10/6 355/10/6 359/10/6
f 359/1/6 356/1/6 360/1/6
f 361/1/6 362/1/6 365/1/6
f 362/10/6 363/10/6 366/10/6
f 365/1/6 362/1/6 366/1/6
f 363/1/6 364/1/6 367/1/6
f 366/10/6 363/10/6 367/10/6
f 367/1/6 364/1/6 368/1/6
f 369/1/6 370/1/6 371/1/6
f 371/1/6 370/1/6 372/1/6
f 373/1/6 374/1/6 377/1/6
f 374/10/6 375/10/6 378/10/6
f 377/1/6 374/1/6 378/1/6
f 375/1/6 376/1/6 379/1/6
f 378/10/6 375/10/6 379/10/6
f 379/1/6 376/1/6 380/1/6
f 381/1/6 382/1/6 383/1/6
f 383/1/6 382/1/6 384/1/6
f 385/1/6 386/1/6 387/1/6
f 387/1/6 386/1/6 388/1/6
